<?xml version="1.0" encoding="utf-8"?>
<!DOCTYPE svg PUBLIC "-//W3C//DTD SVG 20010904//EN" "http://www.w3.org/TR/2001/REC-SVG-20010904/DTD/svg10.dtd">
<svg version="1.0" xmlns="http://www.w3.org/2000/svg" width="336pt" height="336pt" viewBox="0 0 336 336" style="" preserveAspectRatio="xMidYMid meet">
<g fill="#24506AFF" stroke="#24506AFF">
<path d="M 153.040 2.063 C 87.495 8.239 32.118 51.619 10.670 113.592 C -13.092 182.252 10.515 258.576 68.906 301.870 C 121.598 340.939 193.288 345.256 250.315 312.793 C 313.244 276.971 345.652 204.941 330.891 133.705 C 317.230 67.780 262.729 15.184 196.520 4.031 C 182.653 1.695 165.285 0.909 153.040 2.063 M 182.500 6.044 C 210.996 8.745 236.646 18.053 260.219 34.245 C 273.365 43.275 292.376 62.176 301.295 75.084 C 340.119 131.270 340.628 202.712 302.612 260.000 C 293.084 274.358 273.373 294.072 259.000 303.618 C 215.848 332.279 164.340 339.399 116.000 323.385 C 103.001 319.079 86.764 310.984 74.681 302.786 C 62.047 294.214 42.235 274.345 33.233 261.219 C -5.543 204.677 -5.490 133.328 33.372 75.500 C 41.400 63.552 62.523 42.436 74.681 34.202 C 107.310 12.105 144.361 2.429 182.500 6.044 "/></g>
<g fill="#FFFFFFFF" stroke="#FFFFFFFF">
<path d="M 151.050 6.086 C 124.620 8.631 97.930 18.458 74.681 34.202 C 62.523 42.436 41.400 63.552 33.372 75.500 C 21.908 92.558 14.397 108.875 9.663 127.000 C -2.442 173.352 6.019 221.536 33.233 261.219 C 42.235 274.345 62.047 294.214 74.681 302.786 C 117.640 331.933 170.374 339.525 218.610 323.507 C 243.472 315.250 263.230 302.915 282.572 283.572 C 308.119 258.026 323.830 227.439 328.839 193.500 C 333.888 159.290 328.606 125.769 313.412 95.584 C 305.269 79.406 296.286 67.115 282.586 53.403 C 247.144 17.931 200.878 1.288 151.050 6.086 M 186.615 56.548 C 209.871 60.604 228.857 70.182 245.776 86.395 C 264.172 104.023 275.109 124.481 279.452 149.385 C 283.370 171.850 279.425 199.275 269.405 219.237 C 262.178 233.634 248.189 250.224 235.087 259.934 C 195.470 289.295 139.530 289.295 99.913 259.934 C 91.239 253.506 78.606 240.233 72.850 231.500 C 53.366 201.939 48.728 165.549 60.105 131.504 C 69.529 103.303 92.214 77.984 119.192 65.557 C 139.853 56.040 164.680 52.723 186.615 56.548 M 224.432 31.301 C 225.147 33.324 224.972 34.373 223.682 35.798 C 221.277 38.456 221.597 39.581 224.750 39.562 C 227.231 39.546 227.166 39.631 224.081 40.431 C 222.191 40.921 218.837 43.197 216.581 45.522 C 212.191 50.045 208.167 51.416 204.051 49.793 C 201.607 48.830 201.703 48.735 206.330 47.528 C 208.987 46.835 211.895 45.533 212.794 44.634 C 214.307 43.122 214.048 43.000 209.321 43.000 C 205.587 43.000 204.051 42.575 203.607 41.418 C 202.509 38.556 202.950 38.336 207.805 39.331 C 210.447 39.872 213.732 40.033 215.105 39.689 C 217.733 39.029 221.000 33.594 221.000 29.883 C 221.000 27.080 223.272 28.019 224.432 31.301 M 255.429 268.571 C 257.217 270.360 257.475 272.588 256.000 273.500 C 254.215 274.603 254.942 276.000 257.300 276.000 C 258.565 276.000 260.159 276.559 260.842 277.242 C 261.830 278.230 262.289 278.180 263.095 276.992 C 263.933 275.757 264.055 275.826 263.804 277.393 C 263.637 278.434 262.733 279.769 261.795 280.359 C 260.459 281.201 259.579 280.953 257.730 279.217 C 256.433 277.997 254.880 277.000 254.279 277.000 C 253.679 277.000 253.423 276.098 253.712 274.995 C 254.349 272.558 252.416 270.000 249.937 270.000 C 246.918 270.000 246.637 272.007 249.261 274.831 C 250.625 276.299 252.526 278.738 253.486 280.250 C 254.445 281.763 255.953 283.000 256.837 283.000 C 258.115 283.000 257.979 283.461 256.169 285.250 C 254.115 287.280 253.801 287.338 252.948 285.842 C 250.300 281.194 243.775 274.007 242.703 274.557 C 240.789 275.538 246.194 271.072 249.500 268.941 C 253.132 266.600 253.438 266.581 255.429 268.571 M 124.000 34.044 C 124.000 34.618 124.728 34.955 125.617 34.794 C 127.474 34.457 129.827 37.506 128.633 38.700 C 128.195 39.138 127.261 38.710 126.558 37.748 C 124.628 35.109 123.700 35.644 124.387 39.000 C 126.300 48.357 126.295 48.265 124.882 47.796 C 124.122 47.544 123.015 45.124 122.422 42.419 C 121.517 38.287 121.226 37.860 120.605 39.750 C 120.198 40.988 119.477 42.000 119.002 42.000 C 118.528 42.000 118.480 43.238 118.896 44.750 C 119.993 48.738 118.808 52.500 116.455 52.500 C 115.202 52.500 114.647 51.962 114.910 51.000 C 116.270 46.025 116.118 42.788 114.438 40.932 C 112.195 38.453 113.908 35.849 116.414 37.928 C 118.227 39.434 120.000 38.533 120.000 36.108 C 120.000 35.132 120.300 34.033 120.667 33.667 C 121.708 32.625 124.000 32.885 124.000 34.044 M 272.250 89.920 C 275.739 91.365 277.000 92.434 277.000 93.944 C 277.000 95.262 276.350 96.000 275.188 96.000 C 274.191 96.000 272.358 97.377 271.114 99.060 C 268.358 102.787 264.876 102.758 263.998 99.000 C 263.499 96.861 263.764 96.500 265.838 96.500 C 268.274 96.500 271.005 93.671 269.765 92.432 C 269.400 92.067 267.616 91.467 265.801 91.099 C 263.164 90.564 262.436 89.884 262.184 87.723 C 261.874 85.058 261.911 85.040 264.684 86.485 C 266.233 87.292 269.638 88.838 272.250 89.920 M 54.000 82.500 C 54.000 83.325 54.631 84.000 55.402 84.000 C 56.173 84.000 57.275 85.349 57.849 86.997 C 58.424 88.646 60.043 90.518 61.447 91.158 C 64.571 92.581 65.028 96.081 61.985 95.286 C 60.373 94.864 60.107 95.116 60.655 96.544 C 61.125 97.768 60.972 98.101 60.170 97.605 C 59.526 97.207 59.000 96.035 59.000 95.000 C 59.000 92.553 57.023 91.354 55.904 93.122 C 55.256 94.145 55.027 93.920 55.015 92.250 C 55.007 91.013 54.550 90.000 54.000 90.000 C 53.450 90.000 53.000 90.675 53.000 91.500 C 53.000 92.325 52.368 93.000 51.595 93.000 C 50.541 93.000 50.320 92.033 50.709 89.130 C 51.380 84.133 49.578 82.982 47.469 87.060 C 46.580 88.779 45.668 90.001 45.441 89.775 C 45.215 89.549 45.923 87.612 47.015 85.470 C 48.107 83.329 49.000 81.987 49.000 82.489 C 49.000 82.990 49.540 82.860 50.200 82.200 C 51.869 80.531 54.000 80.700 54.000 82.500 M 62.937 254.245 C 61.921 258.193 61.208 261.541 61.351 261.684 C 62.069 262.402 69.004 255.624 69.032 254.177 C 69.059 252.747 69.281 252.795 70.536 254.500 C 71.346 255.600 71.620 256.409 71.145 256.297 C 70.671 256.186 67.536 258.308 64.179 261.013 C 60.822 263.718 57.807 265.497 57.480 264.967 C 56.964 264.132 57.925 259.597 60.647 250.024 C 61.323 247.648 61.152 247.696 56.426 251.200 C 53.717 253.209 51.497 255.605 51.493 256.524 C 51.488 257.925 51.174 257.850 49.549 256.054 C 48.273 254.644 48.105 254.089 49.056 254.428 C 49.857 254.712 53.174 252.783 56.500 250.098 C 64.286 243.813 65.431 244.550 62.937 254.245 M 286.441 228.532 C 288.310 229.945 288.287 230.000 285.814 230.000 C 284.401 230.000 282.756 230.589 282.159 231.308 C 281.314 232.326 282.514 233.445 287.565 236.350 C 291.135 238.403 294.531 239.790 295.111 239.432 C 295.691 239.073 295.420 240.221 294.510 241.981 C 293.105 244.698 292.676 244.956 291.677 243.688 C 291.030 242.866 287.914 240.758 284.754 239.004 C 279.996 236.362 278.909 236.074 278.427 237.329 C 278.108 238.162 278.346 239.779 278.958 240.922 C 280.234 243.306 278.852 243.731 277.016 241.520 C 276.013 240.311 276.487 238.843 279.602 233.520 C 281.699 229.934 283.660 227.014 283.958 227.032 C 284.256 227.049 285.374 227.724 286.441 228.532 M 82.959 266.450 C 84.441 268.236 84.698 268.098 74.500 271.006 C 70.650 272.103 67.341 273.479 67.146 274.062 C 66.787 275.140 63.000 272.332 63.000 270.987 C 63.000 270.601 66.825 269.256 71.500 268.000 C 76.175 266.744 80.000 265.346 80.000 264.893 C 80.000 263.374 75.837 261.824 73.399 262.436 C 71.082 263.018 71.052 262.962 72.667 261.076 C 74.328 259.135 74.399 259.148 78.022 262.017 C 80.040 263.616 82.262 265.611 82.959 266.450 M 293.070 78.000 C 292.481 78.000 292.000 79.167 292.000 80.594 C 292.000 82.346 292.649 83.357 294.000 83.710 C 296.851 84.456 296.485 86.971 293.500 87.150 C 292.125 87.233 290.481 87.345 289.846 87.400 C 289.212 87.455 289.442 86.878 290.359 86.117 C 292.308 84.499 290.903 82.000 288.044 82.000 C 285.339 82.000 284.870 83.153 286.538 85.698 C 288.113 88.102 287.672 90.533 285.864 89.416 C 285.315 89.076 284.618 89.744 284.316 90.899 C 283.742 93.093 281.564 93.721 280.500 92.000 C 280.160 91.450 280.391 91.000 281.012 91.000 C 282.353 91.000 285.000 88.517 285.000 87.260 C 285.000 86.774 284.082 85.392 282.961 84.189 C 281.840 82.985 281.277 81.966 281.711 81.923 C 283.410 81.759 286.224 81.128 287.578 80.608 C 289.496 79.872 289.389 78.000 287.429 78.000 C 286.055 78.000 286.040 77.817 287.310 76.548 C 288.108 75.749 289.007 75.340 289.306 75.639 C 289.605 75.939 290.671 75.719 291.675 75.151 C 293.149 74.317 293.561 74.492 293.820 76.059 C 293.995 77.127 293.658 78.000 293.070 78.000 M 295.794 218.201 C 297.162 219.687 299.568 221.185 301.141 221.531 C 304.178 222.198 304.477 222.699 303.117 224.844 C 302.416 225.951 301.693 225.893 299.026 224.513 C 296.385 223.148 294.786 223.010 290.373 223.771 C 285.144 224.672 284.981 224.632 285.601 222.602 C 285.953 221.446 286.624 219.825 287.091 219.000 C 287.794 217.756 287.944 217.812 287.970 219.329 C 287.995 220.867 288.519 221.048 291.250 220.463 C 295.623 219.526 295.693 219.367 293.008 216.509 C 291.174 214.556 290.377 214.272 289.282 215.181 C 288.104 216.158 288.077 215.926 289.103 213.672 L 290.317 211.008 291.812 213.254 C 292.634 214.489 294.426 216.716 295.794 218.201 M 133.275 31.015 C 133.571 33.223 134.725 36.779 135.839 38.916 C 137.529 42.158 137.653 43.093 136.584 44.554 C 134.730 47.090 133.518 45.815 131.570 39.282 C 130.623 36.102 129.379 32.530 128.806 31.345 C 127.564 28.778 128.432 27.000 130.927 27.000 C 132.283 27.000 132.872 28.006 133.275 31.015 M 188.487 301.987 C 191.939 305.492 193.632 306.606 194.184 305.737 C 194.646 305.009 194.976 306.045 194.985 308.250 C 194.993 310.313 194.647 312.000 194.216 312.000 C 193.785 312.000 190.972 309.504 187.966 306.454 L 182.500 300.908 181.882 304.204 C 181.268 307.474 181.262 307.468 181.132 303.450 C 181.059 301.223 180.460 298.860 179.800 298.200 C 178.867 297.267 179.153 297.000 181.088 297.000 C 182.749 297.000 185.207 298.657 188.487 301.987 M 50.591 241.954 L 45.144 249.909 42.996 246.269 C 41.814 244.266 41.498 243.168 42.292 243.827 C 43.429 244.771 43.999 244.707 44.979 243.525 C 46.717 241.432 45.414 237.104 42.720 236.020 C 40.623 235.176 40.656 235.123 43.309 235.063 C 44.854 235.029 45.881 235.384 45.591 235.853 C 45.301 236.322 45.641 237.495 46.347 238.460 C 47.541 240.092 47.745 240.038 49.293 237.676 C 50.851 235.298 50.847 235.109 49.228 234.685 C 48.278 234.436 49.421 234.180 51.770 234.116 L 56.039 234.000 50.591 241.954 M 99.823 279.808 C 98.430 280.132 91.000 290.452 91.000 292.062 C 91.000 293.393 90.296 293.240 87.259 291.250 C 85.790 290.288 85.195 289.500 85.936 289.500 C 86.678 289.500 88.193 288.283 89.303 286.796 C 91.071 284.429 91.146 283.869 89.911 282.296 C 88.642 280.681 88.667 280.630 90.152 281.791 C 91.569 282.899 92.100 282.669 93.873 280.179 C 95.010 278.581 95.617 276.918 95.220 276.482 C 94.824 276.046 95.995 276.546 97.823 277.594 C 99.650 278.643 100.550 279.639 99.823 279.808 M 205.355 293.752 C 204.737 296.114 207.687 307.189 209.179 308.111 C 209.915 308.565 209.101 309.176 207.053 309.706 C 203.783 310.554 203.733 310.516 203.521 307.033 C 203.143 300.827 201.072 295.007 199.211 294.924 C 198.270 294.882 199.075 294.241 201.000 293.500 C 205.664 291.704 205.887 291.717 205.355 293.752 M 234.191 287.963 C 235.892 291.008 237.937 294.030 238.734 294.677 C 239.948 295.663 239.663 296.123 236.981 297.510 C 235.221 298.420 234.084 298.673 234.456 298.071 C 235.434 296.489 229.056 285.827 226.776 285.231 C 225.174 284.812 225.493 284.370 228.675 282.601 C 230.779 281.432 232.184 280.914 231.799 281.450 C 231.413 281.987 232.489 284.918 234.191 287.963 M 266.949 261.615 C 271.867 259.847 272.170 259.844 274.043 261.539 C 275.119 262.513 276.000 264.210 276.000 265.310 C 276.000 267.215 275.909 267.228 274.090 265.582 C 272.280 263.943 271.913 263.948 267.015 265.677 C 261.958 267.462 261.820 267.459 260.425 265.559 C 259.641 264.491 259.000 262.718 259.000 261.618 C 259.000 259.654 259.026 259.653 260.406 261.540 C 261.783 263.424 261.916 263.425 266.949 261.615 M 276.889 248.912 C 279.050 250.624 281.956 252.615 283.346 253.335 L 285.872 254.646 283.943 257.573 C 282.684 259.482 282.011 259.933 282.007 258.870 C 282.000 257.226 272.004 249.000 270.013 249.000 C 269.423 249.000 269.966 247.629 271.220 245.954 C 272.474 244.279 273.378 243.558 273.229 244.354 C 273.080 245.149 274.727 247.200 276.889 248.912 M 34.609 166.526 C 36.158 168.891 36.150 169.177 34.477 171.026 C 31.405 174.420 26.000 173.046 26.000 168.871 C 26.000 166.579 28.672 164.000 31.048 164.000 C 32.096 164.000 33.699 165.137 34.609 166.526 M 46.828 216.420 C 46.648 216.554 43.442 217.940 39.704 219.501 C 35.967 221.062 32.642 222.770 32.317 223.296 C 31.992 223.822 31.127 222.828 30.395 221.087 C 29.662 219.346 29.522 218.205 30.083 218.551 C 31.742 219.576 43.995 213.913 44.040 212.100 C 44.064 211.134 44.689 211.624 45.618 213.338 C 46.464 214.900 47.009 216.286 46.828 216.420 M 91.276 274.000 C 90.107 274.000 82.667 284.931 82.667 286.649 C 82.667 287.464 81.967 287.369 80.402 286.344 L 78.137 284.860 82.090 279.680 C 84.264 276.831 86.306 273.492 86.627 272.261 L 87.211 270.021 89.741 272.011 C 91.132 273.105 91.823 274.000 91.276 274.000 M 306.800 165.200 C 307.460 165.860 308.000 167.345 308.000 168.500 C 308.000 173.215 301.795 174.839 299.876 170.626 C 297.735 165.929 303.226 161.626 306.800 165.200 M 215.000 290.250 C 215.000 290.938 216.800 293.470 219.000 295.877 C 222.692 299.916 224.249 304.000 222.096 304.000 C 221.599 304.000 219.012 301.302 216.346 298.004 C 213.681 294.706 211.050 291.991 210.500 291.972 C 209.340 291.931 212.980 289.000 214.191 289.000 C 214.636 289.000 215.000 289.563 215.000 290.250 M 127.000 291.960 C 127.000 292.360 126.081 295.345 124.958 298.593 C 123.835 301.842 123.125 305.313 123.379 306.307 C 123.931 308.459 122.091 308.092 120.618 305.756 C 119.886 304.595 120.079 302.590 121.297 298.728 C 122.233 295.756 123.000 292.618 123.000 291.756 C 123.000 290.680 123.628 290.351 125.000 290.710 C 126.100 290.998 127.000 291.560 127.000 291.960 M 67.988 83.727 C 72.670 87.258 76.500 90.676 76.500 91.324 C 76.500 92.705 72.587 93.440 70.177 92.512 C 68.626 91.914 68.631 91.792 70.250 90.883 C 71.213 90.343 72.000 89.539 72.000 89.098 C 72.000 88.656 69.223 86.114 65.830 83.447 C 62.436 80.781 58.386 77.354 56.828 75.832 C 55.053 74.097 53.394 73.295 52.382 73.684 C 51.008 74.211 50.938 73.983 51.917 72.155 C 53.045 70.047 53.128 70.076 56.271 73.656 C 58.034 75.664 63.306 80.195 67.988 83.727 M 109.021 285.284 C 105.715 286.956 101.921 293.757 102.205 297.500 L 102.433 300.500 100.653 297.177 C 97.346 291.003 101.471 283.982 108.385 284.015 L 111.500 284.029 109.021 285.284 M 164.171 305.501 C 163.861 312.571 163.977 313.060 166.171 313.940 L 168.500 314.873 165.872 314.937 C 162.075 315.028 161.220 313.382 160.839 305.248 C 160.526 298.549 160.653 297.995 162.500 297.995 C 164.352 297.995 164.476 298.552 164.171 305.501 M 116.000 292.796 C 116.000 297.012 112.778 301.000 109.373 301.000 L 107.095 301.000 109.538 298.364 C 112.677 294.978 114.263 289.432 112.902 286.607 C 112.001 284.737 112.118 284.765 113.944 286.861 C 115.195 288.297 116.000 290.621 116.000 292.796 M 47.831 70.539 C 48.013 70.698 47.676 71.738 47.081 72.849 C 46.486 73.960 45.947 76.586 45.881 78.684 L 45.762 82.500 44.477 77.500 C 42.500 69.808 42.603 68.743 45.250 69.557 C 46.488 69.937 47.649 70.379 47.831 70.539 M 41.882 80.906 C 43.788 82.113 42.506 89.000 40.375 89.000 C 39.191 89.000 38.991 88.316 39.500 85.999 C 40.002 83.714 39.762 82.846 38.496 82.360 C 37.169 81.851 37.102 81.551 38.166 80.876 C 39.833 79.820 40.171 79.822 41.882 80.906 M 278.692 88.223 C 274.382 87.830 270.584 85.792 270.172 83.653 C 269.873 82.103 270.735 82.335 275.771 85.161 C 280.906 88.041 281.307 88.462 278.692 88.223 M 224.968 55.633 C 224.988 56.942 224.227 57.969 223.000 58.290 C 220.820 58.860 220.625 58.123 221.628 53.109 C 222.202 50.238 222.371 50.120 223.596 51.734 C 224.333 52.705 224.951 54.460 224.968 55.633 M 112.335 44.174 C 112.648 45.369 112.686 46.699 112.420 47.130 C 111.523 48.581 109.211 46.885 108.742 44.433 C 108.135 41.256 111.509 41.013 112.335 44.174 M 247.000 291.165 C 247.000 291.596 245.538 292.697 243.750 293.611 C 240.540 295.253 240.521 295.250 242.250 293.308 C 243.213 292.227 244.014 290.253 244.032 288.921 C 244.063 286.577 244.110 286.561 245.532 288.441 C 246.339 289.509 247.000 290.735 247.000 291.165 M 239.608 278.750 C 241.271 280.941 241.418 282.818 239.800 281.200 C 239.140 280.540 237.479 280.000 236.109 280.000 C 233.704 280.000 233.685 279.949 235.559 278.532 C 238.026 276.666 238.026 276.665 239.608 278.750 M 74.294 278.234 C 72.614 279.754 72.316 279.747 70.173 278.130 L 67.863 276.388 71.984 276.491 C 75.875 276.589 76.004 276.686 74.294 278.234 M 37.058 229.482 C 34.588 230.265 33.399 229.632 32.761 227.195 C 32.300 225.430 32.413 225.426 35.689 227.097 C 38.751 228.657 38.890 228.900 37.058 229.482 M 55.958 102.250 C 56.069 104.228 52.310 102.653 50.868 100.118 L 49.236 97.249 52.576 99.374 C 54.412 100.543 55.934 101.838 55.958 102.250 M 193.930 299.750 C 193.301 304.260 193.260 304.310 193.134 300.750 C 193.053 298.497 192.501 296.994 191.750 296.985 C 190.917 296.974 191.000 296.646 192.000 296.000 C 194.443 294.421 194.624 294.772 193.930 299.750 M 221.951 290.500 C 221.487 287.946 221.616 286.254 222.309 285.819 C 223.048 285.355 223.280 286.629 223.036 289.819 L 222.678 294.500 221.951 290.500 M 269.796 271.000 C 271.262 271.000 271.272 271.156 269.897 272.531 C 268.523 273.906 268.169 273.838 266.433 271.862 C 264.624 269.802 264.618 269.704 266.332 270.330 C 267.339 270.699 268.898 271.000 269.796 271.000 M 67.541 89.067 C 68.705 90.950 67.257 91.200 64.338 89.618 L 61.500 88.080 64.191 88.040 C 65.671 88.018 67.179 88.480 67.541 89.067 M 268.105 257.400 C 267.497 257.345 266.082 257.233 264.961 257.150 C 263.266 257.025 263.139 256.762 264.211 255.593 C 265.315 254.389 265.766 254.425 267.355 255.843 C 268.375 256.755 268.713 257.455 268.105 257.400 M 184.366 313.235 C 185.100 313.710 184.883 314.028 183.750 314.135 C 181.506 314.347 179.619 314.357 181.000 314.150 C 181.550 314.068 182.052 312.763 182.116 311.250 C 182.205 309.142 182.349 308.967 182.732 310.500 C 183.007 311.600 183.742 312.831 184.366 313.235 M 238.131 287.809 C 236.536 288.059 236.267 287.694 236.733 285.911 C 237.293 283.773 237.354 283.763 238.708 285.602 C 239.951 287.290 239.887 287.534 238.131 287.809 M 279.014 80.750 C 279.006 81.438 278.550 82.000 278.000 82.000 C 276.408 82.000 276.826 80.800 279.250 78.413 C 280.488 77.194 280.944 76.940 280.264 77.848 C 279.584 78.757 279.022 80.063 279.014 80.750 M 39.264 235.598 C 39.593 235.927 39.606 236.864 39.292 237.682 C 38.827 238.893 38.565 238.921 37.876 237.834 C 36.402 235.509 37.464 233.798 39.264 235.598 M 136.785 295.252 C 135.884 295.598 134.634 295.264 134.008 294.510 C 133.071 293.381 133.361 293.269 135.647 293.881 C 137.781 294.452 138.045 294.769 136.785 295.252 M 276.792 77.250 C 275.640 79.279 275.405 78.967 275.850 76.000 C 275.933 75.450 276.466 75.000 277.035 75.000 C 277.677 75.000 277.585 75.855 276.792 77.250 M 174.492 299.012 C 174.079 299.681 173.295 299.692 172.183 299.043 C 170.732 298.196 170.818 298.057 172.809 298.030 C 174.118 298.013 174.847 298.438 174.492 299.012 M 132.000 307.000 C 131.800 307.667 131.700 307.667 131.700 307.000 C 131.700 306.450 131.835 305.550 132.000 305.000 C 132.200 304.333 132.300 304.333 132.300 305.000 C 132.300 305.550 132.165 306.450 132.000 307.000 M 172.064 313.460 C 171.413 313.863 171.275 313.448 171.695 312.352 C 172.065 311.389 172.533 311.100 172.736 311.709 C 172.939 312.318 172.637 313.106 172.064 313.460 M 49.200 80.200 C 48.267 81.133 48.000 81.133 48.000 80.200 C 48.000 79.540 48.540 79.000 49.200 79.000 C 50.133 79.000 50.133 79.267 49.200 80.200 "/></g>
<g fill="#24506AFF" stroke="#24506AFF">
<path d="M 148.235 56.497 C 113.299 62.830 83.746 84.152 67.149 115.000 C 50.413 146.107 49.792 187.753 65.595 219.237 C 72.822 233.634 86.811 250.224 99.913 259.934 C 139.530 289.295 195.470 289.295 235.087 259.934 C 243.761 253.506 256.394 240.233 262.150 231.500 C 281.634 201.939 286.272 165.549 274.895 131.504 C 269.128 114.247 259.863 99.894 245.776 86.395 C 228.857 70.182 209.871 60.604 186.615 56.548 C 176.010 54.699 158.287 54.675 148.235 56.497 M 189.765 59.469 C 234.235 68.947 267.605 102.954 277.127 148.500 C 278.728 156.160 278.714 180.675 277.103 188.500 C 267.589 234.719 233.747 268.563 187.500 278.106 C 179.695 279.717 155.179 279.728 147.500 278.125 C 101.195 268.457 67.566 234.828 57.877 188.500 C 56.272 180.825 56.282 156.310 57.894 148.500 C 62.918 124.155 76.202 100.573 93.259 85.718 C 111.951 69.440 132.581 60.424 157.500 57.642 C 163.579 56.964 183.230 58.076 189.765 59.469 "/></g>
<g fill="#FFFFFFFF" stroke="#FFFFFFFF">
<path d="M 157.500 57.642 C 132.581 60.424 111.951 69.440 93.259 85.718 C 76.202 100.573 62.918 124.155 57.894 148.500 C 56.282 156.310 56.272 180.825 57.877 188.500 C 67.566 234.828 101.195 268.457 147.500 278.125 C 155.179 279.728 179.695 279.717 187.500 278.106 C 205.356 274.421 223.550 266.021 237.024 255.241 C 257.571 238.802 271.536 215.546 277.103 188.500 C 278.714 180.675 278.728 156.160 277.127 148.500 C 267.605 102.954 234.235 68.947 189.765 59.469 C 183.230 58.076 163.579 56.964 157.500 57.642 M 172.788 127.750 C 173.015 135.069 173.380 137.000 174.538 137.000 C 175.342 137.000 176.000 136.550 176.000 136.000 C 176.000 135.450 176.675 135.000 177.500 135.000 C 178.652 135.000 179.000 136.278 179.000 140.500 C 179.000 144.227 179.403 146.004 180.250 146.012 C 187.493 146.079 214.358 146.120 217.250 146.068 C 220.735 146.005 221.000 145.788 221.000 143.000 C 221.000 141.350 221.450 140.000 222.000 140.000 C 222.550 140.000 223.000 140.450 223.000 141.000 C 223.000 142.464 230.740 142.231 231.338 140.750 C 231.615 140.063 231.878 140.963 231.921 142.750 C 231.966 144.614 232.533 146.020 233.250 146.046 C 233.938 146.072 241.363 146.052 249.750 146.002 L 265.000 145.912 265.000 167.956 L 265.000 190.000 167.500 190.000 L 70.000 190.000 70.000 168.000 L 70.000 146.000 86.500 146.000 L 103.000 146.000 103.079 142.750 C 103.122 140.963 103.385 140.063 103.662 140.750 C 104.260 142.231 112.000 142.464 112.000 141.000 C 112.000 140.450 112.450 140.000 113.000 140.000 C 113.550 140.000 114.000 141.350 114.000 143.000 C 114.000 145.797 114.253 146.001 117.750 146.015 C 119.813 146.023 128.700 146.067 137.500 146.111 C 146.300 146.156 154.063 146.149 154.750 146.096 C 155.587 146.032 156.000 144.182 156.000 140.500 C 156.000 136.278 156.348 135.000 157.500 135.000 C 158.325 135.000 159.000 135.450 159.000 136.000 C 159.000 136.550 159.675 137.000 160.500 137.000 C 161.728 137.000 162.000 135.279 162.000 127.510 L 162.000 118.019 167.250 118.260 L 172.500 118.500 172.788 127.750 M 177.921 226.000 C 179.355 226.000 181.000 231.102 181.000 235.547 C 181.000 240.592 178.468 244.010 174.750 243.985 C 171.658 243.964 170.307 242.937 169.063 239.665 C 166.247 232.259 170.221 224.013 175.832 225.619 C 176.564 225.828 177.505 226.000 177.921 226.000 M 161.436 226.153 C 164.347 227.479 165.588 231.987 164.645 237.803 C 163.978 241.909 161.818 244.000 158.243 244.000 C 155.435 244.000 152.000 242.330 152.000 240.965 C 152.000 239.632 155.351 239.751 156.733 241.133 C 158.502 242.902 161.000 241.340 161.000 238.464 C 161.000 236.300 160.658 235.974 158.951 236.516 C 157.736 236.901 155.881 236.497 154.392 235.521 C 151.012 233.306 151.353 228.123 155.000 226.288 C 158.087 224.734 158.312 224.729 161.436 226.153 M 195.750 227.245 C 197.680 228.789 197.378 239.925 195.345 242.171 C 192.786 244.999 185.000 244.413 185.000 241.393 C 185.000 239.667 186.401 239.618 189.074 241.250 C 190.817 242.314 191.336 242.211 192.561 240.559 C 194.716 237.652 194.403 235.661 191.893 236.318 C 184.724 238.193 180.881 228.661 187.796 226.157 C 190.620 225.134 193.626 225.545 195.750 227.245 M 145.789 234.739 C 145.545 242.130 145.230 243.529 143.750 243.812 C 142.215 244.105 142.000 243.267 142.000 237.006 C 142.000 230.320 141.873 229.906 140.000 230.500 C 138.600 230.944 138.000 230.680 138.000 229.617 C 138.000 227.755 140.718 226.071 143.789 226.030 C 146.024 226.001 146.071 226.207 145.789 234.739 M 185.000 200.000 C 185.000 200.629 178.500 201.000 167.500 201.000 C 156.500 201.000 150.000 200.629 150.000 200.000 C 150.000 199.371 156.500 199.000 167.500 199.000 C 178.500 199.000 185.000 199.371 185.000 200.000 M 180.500 197.000 C 180.142 197.580 174.676 198.000 167.500 198.000 C 160.324 198.000 154.858 197.580 154.500 197.000 C 154.100 196.352 158.676 196.000 167.500 196.000 C 176.324 196.000 180.900 196.352 180.500 197.000 M 176.000 193.000 C 176.000 193.588 172.500 194.000 167.500 194.000 C 162.500 194.000 159.000 193.588 159.000 193.000 C 159.000 192.412 162.500 192.000 167.500 192.000 C 172.500 192.000 176.000 192.412 176.000 193.000 M 169.314 107.000 C 169.845 108.124 169.390 108.500 167.500 108.500 C 165.604 108.500 165.157 108.128 165.700 107.000 C 166.098 106.175 166.648 101.675 166.924 97.000 L 167.426 88.500 168.015 97.000 C 168.340 101.675 168.924 106.175 169.314 107.000 "/></g>
<g fill="#24506AFF" stroke="#24506AFF">
<path d="M 162.000 127.510 C 162.000 135.279 161.728 137.000 160.500 137.000 C 159.675 137.000 159.000 136.550 159.000 136.000 C 159.000 135.450 158.325 135.000 157.500 135.000 C 156.348 135.000 156.000 136.278 156.000 140.500 C 156.000 144.182 155.587 146.032 154.750 146.096 C 154.063 146.149 146.300 146.156 137.500 146.111 C 128.700 146.067 119.813 146.023 117.750 146.015 C 114.253 146.001 114.000 145.797 114.000 143.000 C 114.000 141.350 113.550 140.000 113.000 140.000 C 112.450 140.000 112.000 140.450 112.000 141.000 C 112.000 142.464 104.260 142.231 103.662 140.750 C 103.385 140.063 103.122 140.963 103.079 142.750 L 103.000 146.000 86.500 146.000 L 70.000 146.000 70.000 168.000 L 70.000 190.000 167.500 190.000 L 265.000 190.000 265.000 167.956 L 265.000 145.912 249.750 146.002 C 241.363 146.052 233.938 146.072 233.250 146.046 C 232.533 146.020 231.966 144.614 231.921 142.750 C 231.878 140.963 231.615 140.063 231.338 140.750 C 230.740 142.231 223.000 142.464 223.000 141.000 C 223.000 140.450 222.550 140.000 222.000 140.000 C 221.450 140.000 221.000 141.350 221.000 143.000 C 221.000 145.788 220.735 146.005 217.250 146.068 C 214.358 146.120 187.493 146.079 180.250 146.012 C 179.403 146.004 179.000 144.227 179.000 140.500 C 179.000 136.278 178.652 135.000 177.500 135.000 C 176.675 135.000 176.000 135.450 176.000 136.000 C 176.000 136.550 175.342 137.000 174.538 137.000 C 173.380 137.000 173.015 135.069 172.788 127.750 L 172.500 118.500 167.250 118.260 L 162.000 118.019 162.000 127.510 M 118.000 154.500 C 118.000 155.325 118.450 156.000 119.000 156.000 C 119.550 156.000 120.000 155.325 120.000 154.500 C 120.000 153.667 120.889 153.000 122.000 153.000 C 123.111 153.000 124.000 153.667 124.000 154.500 C 124.000 155.325 124.450 156.000 125.000 156.000 C 125.550 156.000 126.000 155.325 126.000 154.500 C 126.000 153.667 126.889 153.000 128.000 153.000 C 129.111 153.000 130.000 153.667 130.000 154.500 C 130.000 155.325 130.450 156.000 131.000 156.000 C 131.550 156.000 132.000 155.325 132.000 154.500 C 132.000 153.667 132.889 153.000 134.000 153.000 C 135.111 153.000 136.000 153.667 136.000 154.500 C 136.000 155.325 136.450 156.000 137.000 156.000 C 137.550 156.000 138.000 155.325 138.000 154.500 C 138.000 153.667 138.889 153.000 140.000 153.000 C 141.111 153.000 142.000 153.667 142.000 154.500 C 142.000 155.325 142.464 156.000 143.031 156.000 C 143.599 156.000 144.322 155.325 144.638 154.500 C 144.955 153.675 145.841 153.000 146.607 153.000 C 147.373 153.000 148.000 153.675 148.000 154.500 C 148.000 155.325 148.464 156.000 149.031 156.000 C 149.599 156.000 150.322 155.325 150.638 154.500 C 150.955 153.675 151.793 153.000 152.500 153.000 C 153.207 153.000 154.045 153.675 154.362 154.500 C 154.678 155.325 155.401 156.000 155.969 156.000 C 156.536 156.000 157.000 155.325 157.000 154.500 C 157.000 152.466 158.989 152.605 160.568 154.750 C 161.796 156.417 161.889 156.417 162.536 154.750 C 163.364 152.612 166.000 152.422 166.000 154.500 C 166.000 155.325 166.675 156.000 167.500 156.000 C 168.325 156.000 169.000 155.325 169.000 154.500 C 169.000 153.675 169.675 153.000 170.500 153.000 C 171.325 153.000 172.000 153.675 172.000 154.500 C 172.000 155.325 172.464 156.000 173.031 156.000 C 173.599 156.000 174.322 155.325 174.638 154.500 C 174.955 153.675 175.841 153.000 176.607 153.000 C 177.373 153.000 178.000 153.675 178.000 154.500 C 178.000 155.325 178.464 156.000 179.031 156.000 C 179.599 156.000 180.322 155.325 180.638 154.500 C 180.955 153.675 181.793 153.000 182.500 153.000 C 183.207 153.000 184.045 153.675 184.362 154.500 C 184.678 155.325 185.401 156.000 185.969 156.000 C 186.536 156.000 187.000 155.325 187.000 154.500 C 187.000 153.675 187.627 153.000 188.393 153.000 C 189.159 153.000 190.045 153.675 190.362 154.500 C 190.678 155.325 191.401 156.000 191.969 156.000 C 192.536 156.000 193.000 155.325 193.000 154.500 C 193.000 153.667 193.889 153.000 195.000 153.000 C 196.111 153.000 197.000 153.667 197.000 154.500 C 197.000 155.325 197.450 156.000 198.000 156.000 C 198.550 156.000 199.000 155.325 199.000 154.500 C 199.000 153.667 199.889 153.000 201.000 153.000 C 202.111 153.000 203.000 153.667 203.000 154.500 C 203.000 155.325 203.450 156.000 204.000 156.000 C 204.550 156.000 205.000 155.325 205.000 154.500 C 205.000 152.437 207.681 152.609 208.883 154.750 C 209.819 156.417 209.898 156.417 210.540 154.750 C 211.362 152.615 215.000 152.411 215.000 154.500 C 215.000 155.325 215.450 156.000 216.000 156.000 C 216.550 156.000 217.000 155.325 217.000 154.500 C 217.000 153.675 217.630 153.000 218.400 153.000 C 219.504 153.000 219.827 155.223 219.922 163.500 L 220.044 174.000 214.772 174.185 L 209.500 174.370 214.750 174.737 L 220.000 175.105 220.000 181.626 C 220.000 187.296 219.772 188.103 218.250 187.814 C 216.905 187.558 216.397 186.210 216.056 181.991 L 215.613 176.500 215.056 182.000 C 214.654 185.975 214.084 187.500 213.000 187.500 C 211.896 187.500 211.420 186.116 211.198 182.250 C 210.797 175.283 209.000 175.487 209.000 182.500 C 209.000 186.722 208.652 188.000 207.500 188.000 C 206.348 188.000 206.000 186.722 206.000 182.500 C 206.000 175.487 204.203 175.283 203.802 182.250 C 203.580 186.116 203.104 187.500 202.000 187.500 C 200.896 187.500 200.420 186.116 200.198 182.250 C 199.797 175.283 198.000 175.487 198.000 182.500 L 198.000 188.000 191.500 188.000 L 185.000 188.000 185.000 181.500 C 185.000 177.009 185.386 174.976 186.250 174.921 C 187.250 174.858 187.250 174.741 186.250 174.338 C 185.563 174.060 185.000 173.219 185.000 172.468 C 185.000 171.716 183.495 169.954 181.656 168.551 C 178.547 166.180 177.549 166.000 167.500 166.000 C 157.451 166.000 156.453 166.180 153.344 168.551 C 151.505 169.954 150.000 171.754 150.000 172.551 C 150.000 173.683 148.194 174.045 141.750 174.204 L 133.500 174.407 141.750 174.744 L 150.000 175.081 150.000 181.540 L 150.000 188.000 143.500 188.000 L 137.000 188.000 137.000 182.500 C 137.000 175.487 135.203 175.283 134.802 182.250 C 134.580 186.116 134.104 187.500 133.000 187.500 C 131.896 187.500 131.420 186.116 131.198 182.250 C 130.797 175.283 129.000 175.487 129.000 182.500 C 129.000 186.722 128.652 188.000 127.500 188.000 C 126.348 188.000 126.000 186.722 126.000 182.500 C 126.000 175.487 124.203 175.283 123.802 182.250 C 123.580 186.116 123.104 187.500 122.000 187.500 C 120.902 187.500 120.381 186.025 120.056 182.000 L 119.613 176.500 119.056 181.991 C 118.634 186.155 118.077 187.563 116.750 187.815 C 115.227 188.104 115.000 187.293 115.000 181.573 L 115.000 175.000 123.250 174.796 L 131.500 174.593 123.250 174.256 L 115.000 173.919 115.000 163.460 C 115.000 154.829 115.262 153.000 116.500 153.000 C 117.325 153.000 118.000 153.675 118.000 154.500 M 241.000 159.500 C 241.000 168.333 241.140 169.000 243.000 169.000 C 244.662 169.000 245.000 169.667 245.000 172.941 C 245.000 175.109 245.450 177.160 246.000 177.500 C 246.550 177.840 247.000 179.441 247.000 181.059 C 247.000 183.660 246.653 184.000 244.000 184.000 C 241.467 184.000 241.000 183.611 241.000 181.500 C 241.000 180.125 240.550 179.000 240.000 179.000 C 239.450 179.000 239.000 180.125 239.000 181.500 C 239.000 182.875 238.550 184.000 238.000 184.000 C 237.450 184.000 237.000 184.929 237.000 186.063 C 237.000 187.789 236.468 188.075 233.750 187.813 L 230.500 187.500 230.309 170.000 C 230.203 160.375 230.302 151.938 230.527 151.250 C 230.783 150.470 232.829 150.000 235.969 150.000 L 241.000 150.000 241.000 159.500 M 104.500 169.000 L 104.500 187.500 101.250 187.813 C 98.532 188.075 98.000 187.789 98.000 186.063 C 98.000 184.929 97.550 184.000 97.000 184.000 C 96.450 184.000 96.000 182.875 96.000 181.500 C 96.000 180.125 95.550 179.000 95.000 179.000 C 94.450 179.000 94.000 180.125 94.000 181.500 C 94.000 183.611 93.533 184.000 91.000 184.000 C 88.347 184.000 88.000 183.660 88.000 181.059 C 88.000 179.441 88.450 177.840 89.000 177.500 C 89.550 177.160 90.000 175.109 90.000 172.941 C 90.000 169.667 90.338 169.000 92.000 169.000 C 93.860 169.000 94.000 168.333 94.000 159.448 L 94.000 149.895 99.250 150.198 L 104.500 150.500 104.500 169.000 M 263.042 151.250 C 263.153 154.579 263.196 175.281 263.104 181.250 C 263.009 187.401 262.814 188.000 260.906 188.000 C 259.654 188.000 258.603 187.197 258.290 186.000 C 258.002 184.900 257.369 184.000 256.883 184.000 C 256.398 184.000 256.000 182.875 256.000 181.500 C 256.000 180.125 255.550 179.000 255.000 179.000 C 254.450 179.000 254.000 180.125 254.000 181.500 C 254.000 183.500 253.500 184.000 251.500 184.000 C 249.400 184.000 249.000 183.529 249.000 181.059 C 249.000 179.441 249.450 177.840 250.000 177.500 C 250.550 177.160 251.000 175.109 251.000 172.941 C 251.000 170.105 251.420 169.000 252.500 169.000 C 253.728 169.000 254.000 167.278 254.000 159.500 L 254.000 150.000 258.500 150.000 C 261.411 150.000 263.015 150.441 263.042 151.250 M 81.000 159.500 C 81.000 167.278 81.272 169.000 82.500 169.000 C 83.580 169.000 84.000 170.105 84.000 172.941 C 84.000 175.109 84.450 177.160 85.000 177.500 C 85.550 177.840 86.000 179.441 86.000 181.059 C 86.000 183.529 85.600 184.000 83.500 184.000 C 81.500 184.000 81.000 183.500 81.000 181.500 C 81.000 180.125 80.550 179.000 80.000 179.000 C 79.450 179.000 79.000 180.125 79.000 181.500 C 79.000 182.875 78.602 184.000 78.117 184.000 C 77.631 184.000 76.998 184.900 76.710 186.000 C 76.132 188.211 72.481 188.766 71.779 186.750 C 71.540 186.063 71.462 182.350 71.606 178.500 C 71.750 174.650 71.897 166.663 71.934 160.750 L 72.000 150.000 76.500 150.000 L 81.000 150.000 81.000 159.500 M 220.000 150.000 C 220.000 152.228 218.040 152.640 216.200 150.800 C 215.363 149.963 215.000 149.938 215.000 150.720 C 215.000 151.989 206.265 151.952 204.250 150.674 C 203.563 150.239 203.000 150.307 203.000 150.826 C 203.000 152.031 193.162 152.070 192.419 150.868 C 192.112 150.373 191.330 150.308 190.681 150.723 C 188.957 151.827 181.059 151.905 180.392 150.825 C 180.066 150.298 179.183 150.433 178.330 151.141 C 177.211 152.069 176.389 152.100 175.047 151.262 C 173.720 150.433 172.958 150.442 172.103 151.297 C 171.232 152.168 170.498 152.168 169.103 151.297 C 167.709 150.426 166.974 150.426 166.103 151.297 C 165.232 152.168 164.478 152.155 163.021 151.245 C 161.961 150.583 160.855 150.425 160.565 150.894 C 159.948 151.893 151.488 151.822 150.475 150.809 C 150.095 150.429 148.969 150.627 147.973 151.249 C 146.606 152.102 145.797 152.076 144.670 151.141 C 143.660 150.303 142.969 150.241 142.530 150.951 C 141.636 152.397 138.000 152.276 138.000 150.800 C 138.000 149.867 137.733 149.867 136.800 150.800 C 135.285 152.315 132.000 152.368 132.000 150.878 C 132.000 150.119 131.595 150.076 130.750 150.744 C 129.005 152.125 120.000 152.096 120.000 150.710 C 120.000 149.947 119.625 149.975 118.800 150.800 C 116.960 152.640 115.000 152.228 115.000 150.000 C 115.000 148.025 115.667 148.000 167.500 148.000 C 219.333 148.000 220.000 148.025 220.000 150.000 M 229.000 168.500 L 229.000 188.000 225.500 188.000 L 222.000 188.000 222.000 168.500 L 222.000 149.000 225.500 149.000 L 229.000 149.000 229.000 168.500 M 113.000 168.500 L 113.000 188.000 109.500 188.000 L 106.000 188.000 106.000 168.500 L 106.000 149.000 109.500 149.000 L 113.000 149.000 113.000 168.500 M 252.000 159.000 C 252.000 164.333 251.593 168.000 251.000 168.000 C 250.450 168.000 250.000 169.575 250.000 171.500 C 250.000 174.333 249.619 175.000 248.000 175.000 C 246.381 175.000 246.000 174.333 246.000 171.500 C 246.000 169.056 245.548 168.000 244.500 168.000 C 243.287 168.000 243.000 166.407 243.000 159.667 C 243.000 155.083 243.300 151.033 243.667 150.667 C 244.033 150.300 246.058 150.000 248.167 150.000 L 252.000 150.000 252.000 159.000 M 91.789 159.250 C 92.031 166.585 91.829 168.000 90.539 168.000 C 89.447 168.000 89.000 169.016 89.000 171.500 C 89.000 174.333 88.619 175.000 87.000 175.000 C 85.381 175.000 85.000 174.333 85.000 171.500 C 85.000 169.575 84.550 168.000 84.000 168.000 C 83.407 168.000 83.000 164.314 83.000 158.943 L 83.000 149.885 87.250 150.193 L 91.500 150.500 91.789 159.250 M 177.920 169.403 C 179.442 171.238 178.956 187.188 177.362 187.716 C 176.600 187.968 176.099 185.640 175.849 180.685 C 175.375 171.303 174.349 170.000 167.434 170.000 C 160.416 170.000 159.000 171.899 159.000 181.306 C 159.000 186.349 158.669 188.057 157.750 187.753 C 156.051 187.190 155.473 171.340 157.080 169.403 C 157.926 168.384 160.777 168.000 167.500 168.000 C 174.223 168.000 177.074 168.384 177.920 169.403 M 171.000 128.500 L 171.000 137.000 167.500 137.000 L 164.000 137.000 164.000 128.500 L 164.000 120.000 167.500 120.000 L 171.000 120.000 171.000 128.500 M 173.393 172.582 C 174.407 175.224 174.081 188.000 173.000 188.000 C 172.444 188.000 172.000 185.333 172.000 182.000 L 172.000 176.000 167.500 176.000 L 163.000 176.000 163.000 182.000 C 163.000 185.333 162.556 188.000 162.000 188.000 C 160.919 188.000 160.593 175.224 161.607 172.582 C 162.472 170.328 172.528 170.328 173.393 172.582 M 176.000 143.000 L 176.000 146.000 167.500 146.000 L 159.000 146.000 159.000 143.000 L 159.000 140.000 167.500 140.000 L 176.000 140.000 176.000 143.000 M 170.805 182.750 C 170.513 187.293 170.370 187.500 167.500 187.500 C 164.630 187.500 164.487 187.293 164.195 182.750 L 163.890 178.000 167.500 178.000 L 171.110 178.000 170.805 182.750 M 230.823 144.553 C 230.645 145.407 230.163 146.082 229.750 146.053 C 229.338 146.024 227.650 146.000 226.000 146.000 C 224.000 146.000 223.000 145.500 223.000 144.500 C 223.000 143.412 224.119 143.000 227.073 143.000 C 230.228 143.000 231.074 143.350 230.823 144.553 M 112.000 144.500 C 112.000 145.583 110.889 146.000 108.000 146.000 C 105.111 146.000 104.000 145.583 104.000 144.500 C 104.000 143.417 105.111 143.000 108.000 143.000 C 110.889 143.000 112.000 143.417 112.000 144.500 "/></g>
<g fill="#FFFFFFFF" stroke="#FFFFFFFF">
<path d="M 115.000 163.460 L 115.000 173.919 123.250 174.256 L 131.500 174.593 123.250 174.796 L 115.000 175.000 115.000 181.573 C 115.000 187.293 115.227 188.104 116.750 187.815 C 118.077 187.563 118.634 186.155 119.056 181.991 L 119.613 176.500 120.056 182.000 C 120.381 186.025 120.902 187.500 122.000 187.500 C 123.104 187.500 123.580 186.116 123.802 182.250 C 124.203 175.283 126.000 175.487 126.000 182.500 C 126.000 186.722 126.348 188.000 127.500 188.000 C 128.652 188.000 129.000 186.722 129.000 182.500 C 129.000 175.487 130.797 175.283 131.198 182.250 C 131.420 186.116 131.896 187.500 133.000 187.500 C 134.104 187.500 134.580 186.116 134.802 182.250 C 135.203 175.283 137.000 175.487 137.000 182.500 L 137.000 188.000 143.500 188.000 L 150.000 188.000 150.000 181.540 L 150.000 175.081 141.750 174.744 L 133.500 174.407 141.750 174.204 C 148.194 174.045 150.000 173.683 150.000 172.551 C 150.000 171.754 151.505 169.954 153.344 168.551 C 156.453 166.180 157.451 166.000 167.500 166.000 C 177.549 166.000 178.547 166.180 181.656 168.551 C 183.495 169.954 185.000 171.716 185.000 172.468 C 185.000 173.219 185.563 174.060 186.250 174.338 C 187.250 174.741 187.250 174.858 186.250 174.921 C 185.386 174.976 185.000 177.009 185.000 181.500 L 185.000 188.000 191.500 188.000 L 198.000 188.000 198.000 182.500 C 198.000 175.487 199.797 175.283 200.198 182.250 C 200.420 186.116 200.896 187.500 202.000 187.500 C 203.104 187.500 203.580 186.116 203.802 182.250 C 204.203 175.283 206.000 175.487 206.000 182.500 C 206.000 186.722 206.348 188.000 207.500 188.000 C 208.652 188.000 209.000 186.722 209.000 182.500 C 209.000 175.487 210.797 175.283 211.198 182.250 C 211.420 186.116 211.896 187.500 213.000 187.500 C 214.084 187.500 214.654 185.975 215.056 182.000 L 215.613 176.500 216.056 181.991 C 216.397 186.210 216.905 187.558 218.250 187.814 C 219.772 188.103 220.000 187.296 220.000 181.626 L 220.000 175.105 214.750 174.737 L 209.500 174.370 214.772 174.185 L 220.044 174.000 219.922 163.500 C 219.827 155.223 219.504 153.000 218.400 153.000 C 217.630 153.000 217.000 153.675 217.000 154.500 C 217.000 155.325 216.550 156.000 216.000 156.000 C 215.450 156.000 215.000 155.325 215.000 154.500 C 215.000 152.411 211.362 152.615 210.540 154.750 C 209.898 156.417 209.819 156.417 208.883 154.750 C 207.681 152.609 205.000 152.437 205.000 154.500 C 205.000 155.325 204.550 156.000 204.000 156.000 C 203.450 156.000 203.000 155.325 203.000 154.500 C 203.000 153.667 202.111 153.000 201.000 153.000 C 199.889 153.000 199.000 153.667 199.000 154.500 C 199.000 155.325 198.550 156.000 198.000 156.000 C 197.450 156.000 197.000 155.325 197.000 154.500 C 197.000 153.667 196.111 153.000 195.000 153.000 C 193.889 153.000 193.000 153.667 193.000 154.500 C 193.000 155.325 192.536 156.000 191.969 156.000 C 191.401 156.000 190.678 155.325 190.362 154.500 C 190.045 153.675 189.159 153.000 188.393 153.000 C 187.627 153.000 187.000 153.675 187.000 154.500 C 187.000 155.325 186.536 156.000 185.969 156.000 C 185.401 156.000 184.678 155.325 184.362 154.500 C 184.045 153.675 183.207 153.000 182.500 153.000 C 181.793 153.000 180.955 153.675 180.638 154.500 C 180.322 155.325 179.599 156.000 179.031 156.000 C 178.464 156.000 178.000 155.325 178.000 154.500 C 178.000 153.675 177.373 153.000 176.607 153.000 C 175.841 153.000 174.955 153.675 174.638 154.500 C 174.322 155.325 173.599 156.000 173.031 156.000 C 172.464 156.000 172.000 155.325 172.000 154.500 C 172.000 153.675 171.325 153.000 170.500 153.000 C 169.675 153.000 169.000 153.675 169.000 154.500 C 169.000 155.325 168.325 156.000 167.500 156.000 C 166.675 156.000 166.000 155.325 166.000 154.500 C 166.000 152.422 163.364 152.612 162.536 154.750 C 161.889 156.417 161.796 156.417 160.568 154.750 C 158.989 152.605 157.000 152.466 157.000 154.500 C 157.000 155.325 156.536 156.000 155.969 156.000 C 155.401 156.000 154.678 155.325 154.362 154.500 C 154.045 153.675 153.207 153.000 152.500 153.000 C 151.793 153.000 150.955 153.675 150.638 154.500 C 150.322 155.325 149.599 156.000 149.031 156.000 C 148.464 156.000 148.000 155.325 148.000 154.500 C 148.000 153.675 147.373 153.000 146.607 153.000 C 145.841 153.000 144.955 153.675 144.638 154.500 C 144.322 155.325 143.599 156.000 143.031 156.000 C 142.464 156.000 142.000 155.325 142.000 154.500 C 142.000 153.667 141.111 153.000 140.000 153.000 C 138.889 153.000 138.000 153.667 138.000 154.500 C 138.000 155.325 137.550 156.000 137.000 156.000 C 136.450 156.000 136.000 155.325 136.000 154.500 C 136.000 153.667 135.111 153.000 134.000 153.000 C 132.889 153.000 132.000 153.667 132.000 154.500 C 132.000 155.325 131.550 156.000 131.000 156.000 C 130.450 156.000 130.000 155.325 130.000 154.500 C 130.000 153.667 129.111 153.000 128.000 153.000 C 126.889 153.000 126.000 153.667 126.000 154.500 C 126.000 155.325 125.550 156.000 125.000 156.000 C 124.450 156.000 124.000 155.325 124.000 154.500 C 124.000 153.667 123.111 153.000 122.000 153.000 C 120.889 153.000 120.000 153.667 120.000 154.500 C 120.000 155.325 119.550 156.000 119.000 156.000 C 118.450 156.000 118.000 155.325 118.000 154.500 C 118.000 153.675 117.325 153.000 116.500 153.000 C 115.262 153.000 115.000 154.829 115.000 163.460 M 181.150 160.500 C 181.233 161.875 181.300 163.450 181.300 164.000 C 181.300 164.667 181.250 164.667 181.150 164.000 C 181.068 163.450 180.325 163.000 179.500 163.000 C 178.567 163.000 178.000 162.056 178.000 160.500 C 178.000 158.944 178.567 158.000 179.500 158.000 C 180.393 158.000 181.061 159.011 181.150 160.500 M 157.000 160.500 C 157.000 162.056 156.433 163.000 155.500 163.000 C 154.675 163.000 153.933 163.450 153.850 164.000 C 153.750 164.667 153.700 164.667 153.700 164.000 C 153.700 159.597 154.179 158.000 155.500 158.000 C 156.433 158.000 157.000 158.944 157.000 160.500 M 193.000 160.559 C 193.000 162.062 192.424 163.000 191.500 163.000 C 190.003 163.000 189.352 158.982 190.639 157.694 C 191.773 156.560 193.000 158.050 193.000 160.559 M 163.000 160.559 C 163.000 162.062 162.424 163.000 161.500 163.000 C 160.003 163.000 159.352 158.982 160.639 157.694 C 161.773 156.560 163.000 158.050 163.000 160.559 M 187.000 160.500 C 187.000 162.056 186.433 163.000 185.500 163.000 C 184.567 163.000 184.000 162.056 184.000 160.500 C 184.000 158.944 184.567 158.000 185.500 158.000 C 186.433 158.000 187.000 158.944 187.000 160.500 M 175.000 160.500 C 175.000 162.056 174.433 163.000 173.500 163.000 C 172.567 163.000 172.000 162.056 172.000 160.500 C 172.000 158.944 172.567 158.000 173.500 158.000 C 174.433 158.000 175.000 158.944 175.000 160.500 M 169.000 160.500 C 169.000 162.056 168.433 163.000 167.500 163.000 C 166.567 163.000 166.000 162.056 166.000 160.500 C 166.000 158.944 166.567 158.000 167.500 158.000 C 168.433 158.000 169.000 158.944 169.000 160.500 M 151.000 160.500 C 151.000 162.056 150.433 163.000 149.500 163.000 C 148.567 163.000 148.000 162.056 148.000 160.500 C 148.000 158.944 148.567 158.000 149.500 158.000 C 150.433 158.000 151.000 158.944 151.000 160.500 M 145.000 160.500 C 145.000 162.056 144.433 163.000 143.500 163.000 C 142.567 163.000 142.000 162.056 142.000 160.500 C 142.000 158.944 142.567 158.000 143.500 158.000 C 144.433 158.000 145.000 158.944 145.000 160.500 M 211.000 160.500 C 211.000 161.875 210.602 163.000 210.117 163.000 C 209.631 163.000 209.018 161.875 208.755 160.500 C 208.435 158.824 208.726 158.000 209.639 158.000 C 210.424 158.000 211.000 159.058 211.000 160.500 M 199.000 160.500 C 199.000 161.875 198.602 163.000 198.117 163.000 C 197.631 163.000 197.018 161.875 196.755 160.500 C 196.435 158.824 196.726 158.000 197.639 158.000 C 198.424 158.000 199.000 159.058 199.000 160.500 M 138.245 160.500 C 137.982 161.875 137.369 163.000 136.883 163.000 C 136.398 163.000 136.000 161.875 136.000 160.500 C 136.000 159.058 136.576 158.000 137.361 158.000 C 138.274 158.000 138.565 158.824 138.245 160.500 M 126.245 160.500 C 125.982 161.875 125.369 163.000 124.883 163.000 C 124.398 163.000 124.000 161.875 124.000 160.500 C 124.000 159.058 124.576 158.000 125.361 158.000 C 126.274 158.000 126.565 158.824 126.245 160.500 M 217.000 160.500 C 217.000 161.875 216.550 163.000 216.000 163.000 C 215.450 163.000 215.000 161.875 215.000 160.500 C 215.000 159.125 215.450 158.000 216.000 158.000 C 216.550 158.000 217.000 159.125 217.000 160.500 M 205.000 160.500 C 205.000 161.875 204.550 163.000 204.000 163.000 C 203.450 163.000 203.000 161.875 203.000 160.500 C 203.000 159.125 203.450 158.000 204.000 158.000 C 204.550 158.000 205.000 159.125 205.000 160.500 M 132.000 160.500 C 132.000 161.875 131.550 163.000 131.000 163.000 C 130.450 163.000 130.000 161.875 130.000 160.500 C 130.000 159.125 130.450 158.000 131.000 158.000 C 131.550 158.000 132.000 159.125 132.000 160.500 M 120.000 160.500 C 120.000 161.875 119.550 163.000 119.000 163.000 C 118.450 163.000 118.000 161.875 118.000 160.500 C 118.000 159.125 118.450 158.000 119.000 158.000 C 119.550 158.000 120.000 159.125 120.000 160.500 "/></g>
<g fill="#FFFFFFFF" stroke="#FFFFFFFF">
<path d="M 230.527 151.250 C 230.302 151.938 230.203 160.375 230.309 170.000 L 230.500 187.500 233.750 187.813 C 236.468 188.075 237.000 187.789 237.000 186.063 C 237.000 184.929 237.450 184.000 238.000 184.000 C 238.550 184.000 239.000 182.875 239.000 181.500 C 239.000 180.125 239.450 179.000 240.000 179.000 C 240.550 179.000 241.000 180.125 241.000 181.500 C 241.000 183.611 241.467 184.000 244.000 184.000 C 246.653 184.000 247.000 183.660 247.000 181.059 C 247.000 179.441 246.550 177.840 246.000 177.500 C 245.450 177.160 245.000 175.109 245.000 172.941 C 245.000 169.667 244.662 169.000 243.000 169.000 C 241.140 169.000 241.000 168.333 241.000 159.500 L 241.000 150.000 235.969 150.000 C 232.829 150.000 230.783 150.470 230.527 151.250 "/></g>
<g fill="#FFFFFFFF" stroke="#FFFFFFFF">
<path d="M 94.000 159.448 C 94.000 168.333 93.860 169.000 92.000 169.000 C 90.338 169.000 90.000 169.667 90.000 172.941 C 90.000 175.109 89.550 177.160 89.000 177.500 C 88.450 177.840 88.000 179.441 88.000 181.059 C 88.000 183.660 88.347 184.000 91.000 184.000 C 93.533 184.000 94.000 183.611 94.000 181.500 C 94.000 180.125 94.450 179.000 95.000 179.000 C 95.550 179.000 96.000 180.125 96.000 181.500 C 96.000 182.875 96.450 184.000 97.000 184.000 C 97.550 184.000 98.000 184.929 98.000 186.063 C 98.000 187.789 98.532 188.075 101.250 187.813 L 104.500 187.500 104.500 169.000 L 104.500 150.500 99.250 150.198 L 94.000 149.895 94.000 159.448 "/></g>
<g fill="#FFFFFFFF" stroke="#FFFFFFFF">
<path d="M 254.000 159.500 C 254.000 167.278 253.728 169.000 252.500 169.000 C 251.420 169.000 251.000 170.105 251.000 172.941 C 251.000 175.109 250.550 177.160 250.000 177.500 C 249.450 177.840 249.000 179.441 249.000 181.059 C 249.000 183.529 249.400 184.000 251.500 184.000 C 253.500 184.000 254.000 183.500 254.000 181.500 C 254.000 180.125 254.450 179.000 255.000 179.000 C 255.550 179.000 256.000 180.125 256.000 181.500 C 256.000 182.875 256.398 184.000 256.883 184.000 C 257.369 184.000 258.002 184.900 258.290 186.000 C 258.603 187.197 259.654 188.000 260.906 188.000 C 262.814 188.000 263.009 187.401 263.104 181.250 C 263.196 175.281 263.153 154.579 263.042 151.250 C 263.015 150.441 261.411 150.000 258.500 150.000 L 254.000 150.000 254.000 159.500 "/></g>
<g fill="#FFFFFFFF" stroke="#FFFFFFFF">
<path d="M 71.934 160.750 C 71.897 166.663 71.750 174.650 71.606 178.500 C 71.462 182.350 71.540 186.063 71.779 186.750 C 72.481 188.766 76.132 188.211 76.710 186.000 C 76.998 184.900 77.631 184.000 78.117 184.000 C 78.602 184.000 79.000 182.875 79.000 181.500 C 79.000 180.125 79.450 179.000 80.000 179.000 C 80.550 179.000 81.000 180.125 81.000 181.500 C 81.000 183.500 81.500 184.000 83.500 184.000 C 85.600 184.000 86.000 183.529 86.000 181.059 C 86.000 179.441 85.550 177.840 85.000 177.500 C 84.450 177.160 84.000 175.109 84.000 172.941 C 84.000 170.105 83.580 169.000 82.500 169.000 C 81.272 169.000 81.000 167.278 81.000 159.500 L 81.000 150.000 76.500 150.000 L 72.000 150.000 71.934 160.750 "/></g>
<g fill="#FFFFFFFF" stroke="#FFFFFFFF">
<path d="M 115.000 150.000 C 115.000 152.228 116.960 152.640 118.800 150.800 C 119.625 149.975 120.000 149.947 120.000 150.710 C 120.000 152.096 129.005 152.125 130.750 150.744 C 131.595 150.076 132.000 150.119 132.000 150.878 C 132.000 152.368 135.285 152.315 136.800 150.800 C 137.733 149.867 138.000 149.867 138.000 150.800 C 138.000 152.276 141.636 152.397 142.530 150.951 C 142.969 150.241 143.660 150.303 144.670 151.141 C 145.797 152.076 146.606 152.102 147.973 151.249 C 148.969 150.627 150.095 150.429 150.475 150.809 C 151.488 151.822 159.948 151.893 160.565 150.894 C 160.855 150.425 161.961 150.583 163.021 151.245 C 164.478 152.155 165.232 152.168 166.103 151.297 C 166.974 150.426 167.709 150.426 169.103 151.297 C 170.498 152.168 171.232 152.168 172.103 151.297 C 172.958 150.442 173.720 150.433 175.047 151.262 C 176.389 152.100 177.211 152.069 178.330 151.141 C 179.183 150.433 180.066 150.298 180.392 150.825 C 181.059 151.905 188.957 151.827 190.681 150.723 C 191.330 150.308 192.112 150.373 192.419 150.868 C 193.162 152.070 203.000 152.031 203.000 150.826 C 203.000 150.307 203.563 150.239 204.250 150.674 C 206.265 151.952 215.000 151.989 215.000 150.720 C 215.000 149.938 215.363 149.963 216.200 150.800 C 218.040 152.640 220.000 152.228 220.000 150.000 C 220.000 148.025 219.333 148.000 167.500 148.000 C 115.667 148.000 115.000 148.025 115.000 150.000 "/></g>
<g fill="#FFFFFFFF" stroke="#FFFFFFFF">
<path d="M 222.000 168.500 L 222.000 188.000 225.500 188.000 L 229.000 188.000 229.000 168.500 L 229.000 149.000 225.500 149.000 L 222.000 149.000 222.000 168.500 "/></g>
<g fill="#FFFFFFFF" stroke="#FFFFFFFF">
<path d="M 106.000 168.500 L 106.000 188.000 109.500 188.000 L 113.000 188.000 113.000 168.500 L 113.000 149.000 109.500 149.000 L 106.000 149.000 106.000 168.500 "/></g>
<g fill="#24506AFF" stroke="#24506AFF">
<path d="M 172.736 225.695 C 168.908 226.687 166.954 234.118 169.063 239.665 C 170.307 242.937 171.658 243.964 174.750 243.985 C 178.468 244.010 181.000 240.592 181.000 235.547 C 181.000 231.102 179.355 226.000 177.921 226.000 C 177.505 226.000 176.564 225.828 175.832 225.619 C 175.099 225.409 173.706 225.443 172.736 225.695 M 177.536 231.162 C 178.930 237.512 175.435 244.876 172.914 240.896 C 171.706 238.987 171.771 231.296 173.015 228.971 C 174.401 226.383 176.734 227.514 177.536 231.162 "/></g>
<g fill="#FFFFFFFF" stroke="#FFFFFFFF">
<path d="M 243.667 150.667 C 243.300 151.033 243.000 155.083 243.000 159.667 C 243.000 166.407 243.287 168.000 244.500 168.000 C 245.548 168.000 246.000 169.056 246.000 171.500 C 246.000 174.333 246.381 175.000 248.000 175.000 C 249.619 175.000 250.000 174.333 250.000 171.500 C 250.000 169.575 250.450 168.000 251.000 168.000 C 251.593 168.000 252.000 164.333 252.000 159.000 L 252.000 150.000 248.167 150.000 C 246.058 150.000 244.033 150.300 243.667 150.667 "/></g>
<g fill="#FFFFFFFF" stroke="#FFFFFFFF">
<path d="M 83.000 158.943 C 83.000 164.314 83.407 168.000 84.000 168.000 C 84.550 168.000 85.000 169.575 85.000 171.500 C 85.000 174.333 85.381 175.000 87.000 175.000 C 88.619 175.000 89.000 174.333 89.000 171.500 C 89.000 169.016 89.447 168.000 90.539 168.000 C 91.829 168.000 92.031 166.585 91.789 159.250 L 91.500 150.500 87.250 150.193 L 83.000 149.885 83.000 158.943 "/></g>
<g fill="#24506AFF" stroke="#24506AFF">
<path d="M 155.000 226.288 C 151.353 228.123 151.012 233.306 154.392 235.521 C 155.881 236.497 157.736 236.901 158.951 236.516 C 160.658 235.974 161.000 236.300 161.000 238.464 C 161.000 241.340 158.502 242.902 156.733 241.133 C 155.351 239.751 152.000 239.632 152.000 240.965 C 152.000 242.330 155.435 244.000 158.243 244.000 C 161.818 244.000 163.978 241.909 164.645 237.803 C 165.588 231.987 164.347 227.479 161.436 226.153 C 158.312 224.729 158.087 224.734 155.000 226.288 M 161.000 231.000 C 161.000 234.130 158.523 235.679 156.373 233.895 C 154.577 232.404 154.633 230.510 156.529 228.614 C 158.681 226.462 161.000 227.700 161.000 231.000 "/></g>
<g fill="#24506AFF" stroke="#24506AFF">
<path d="M 187.796 226.157 C 180.881 228.661 184.724 238.193 191.893 236.318 C 194.403 235.661 194.716 237.652 192.561 240.559 C 191.336 242.211 190.817 242.314 189.074 241.250 C 186.401 239.618 185.000 239.667 185.000 241.393 C 185.000 244.413 192.786 244.999 195.345 242.171 C 197.378 239.925 197.680 228.789 195.750 227.245 C 193.626 225.545 190.620 225.134 187.796 226.157 M 193.000 229.000 C 194.082 231.022 192.866 235.000 191.165 235.000 C 189.844 235.000 188.000 232.669 188.000 231.000 C 188.000 229.331 189.844 227.000 191.165 227.000 C 191.585 227.000 192.411 227.900 193.000 229.000 "/></g>
<g fill="#24506AFF" stroke="#24506AFF">
<path d="M 221.000 29.883 C 221.000 33.594 217.733 39.029 215.105 39.689 C 213.732 40.033 210.447 39.872 207.805 39.331 C 202.950 38.336 202.509 38.556 203.607 41.418 C 204.051 42.575 205.587 43.000 209.321 43.000 C 214.048 43.000 214.307 43.122 212.794 44.634 C 211.895 45.533 208.987 46.835 206.330 47.528 C 201.703 48.735 201.607 48.830 204.051 49.793 C 208.167 51.416 212.191 50.045 216.581 45.522 C 218.837 43.197 222.191 40.921 224.081 40.431 C 227.166 39.631 227.231 39.546 224.750 39.562 C 221.597 39.581 221.277 38.456 223.682 35.798 C 224.972 34.373 225.147 33.324 224.432 31.301 C 223.272 28.019 221.000 27.080 221.000 29.883 "/></g>
<g fill="#FFFFFFFF" stroke="#FFFFFFFF">
<path d="M 157.080 169.403 C 155.473 171.340 156.051 187.190 157.750 187.753 C 158.669 188.057 159.000 186.349 159.000 181.306 C 159.000 171.899 160.416 170.000 167.434 170.000 C 174.349 170.000 175.375 171.303 175.849 180.685 C 176.099 185.640 176.600 187.968 177.362 187.716 C 178.956 187.188 179.442 171.238 177.920 169.403 C 177.074 168.384 174.223 168.000 167.500 168.000 C 160.777 168.000 157.926 168.384 157.080 169.403 "/></g>
<g fill="#24506AFF" stroke="#24506AFF">
<path d="M 249.500 268.941 C 246.194 271.072 240.789 275.538 242.703 274.557 C 243.775 274.007 250.300 281.194 252.948 285.842 C 253.801 287.338 254.115 287.280 256.169 285.250 C 257.979 283.461 258.115 283.000 256.837 283.000 C 255.953 283.000 254.445 281.763 253.486 280.250 C 252.526 278.738 250.625 276.299 249.261 274.831 C 246.637 272.007 246.918 270.000 249.937 270.000 C 252.416 270.000 254.349 272.558 253.712 274.995 C 253.423 276.098 253.679 277.000 254.279 277.000 C 254.880 277.000 256.433 277.997 257.730 279.217 C 259.579 280.953 260.459 281.201 261.795 280.359 C 262.733 279.769 263.637 278.434 263.804 277.393 C 264.055 275.826 263.933 275.757 263.095 276.992 C 262.289 278.180 261.830 278.230 260.842 277.242 C 260.159 276.559 258.565 276.000 257.300 276.000 C 254.942 276.000 254.215 274.603 256.000 273.500 C 257.475 272.588 257.217 270.360 255.429 268.571 C 253.438 266.581 253.132 266.600 249.500 268.941 "/></g>
<g fill="#24506AFF" stroke="#24506AFF">
<path d="M 120.667 33.667 C 120.300 34.033 120.000 35.132 120.000 36.108 C 120.000 38.533 118.227 39.434 116.414 37.928 C 113.908 35.849 112.195 38.453 114.438 40.932 C 116.118 42.788 116.270 46.025 114.910 51.000 C 114.647 51.962 115.202 52.500 116.455 52.500 C 118.808 52.500 119.993 48.738 118.896 44.750 C 118.480 43.238 118.528 42.000 119.002 42.000 C 119.477 42.000 120.198 40.988 120.605 39.750 C 121.226 37.860 121.517 38.287 122.422 42.419 C 123.015 45.124 124.122 47.544 124.882 47.796 C 126.295 48.265 126.300 48.357 124.387 39.000 C 123.700 35.644 124.628 35.109 126.558 37.748 C 127.261 38.710 128.195 39.138 128.633 38.700 C 129.827 37.506 127.474 34.457 125.617 34.794 C 124.728 34.955 124.000 34.618 124.000 34.044 C 124.000 32.885 121.708 32.625 120.667 33.667 "/></g>
<g fill="#FFFFFFFF" stroke="#FFFFFFFF">
<path d="M 164.000 128.500 L 164.000 137.000 167.500 137.000 L 171.000 137.000 171.000 128.500 L 171.000 120.000 167.500 120.000 L 164.000 120.000 164.000 128.500 "/></g>
<g fill="#24506AFF" stroke="#24506AFF">
<path d="M 262.184 87.723 C 262.436 89.884 263.164 90.564 265.801 91.099 C 267.616 91.467 269.400 92.067 269.765 92.432 C 271.005 93.671 268.274 96.500 265.838 96.500 C 263.764 96.500 263.499 96.861 263.998 99.000 C 264.876 102.758 268.358 102.787 271.114 99.060 C 272.358 97.377 274.191 96.000 275.188 96.000 C 276.350 96.000 277.000 95.262 277.000 93.944 C 277.000 92.434 275.739 91.365 272.250 89.920 C 269.638 88.838 266.233 87.292 264.684 86.485 C 261.911 85.040 261.874 85.058 262.184 87.723 "/></g>
<g fill="#FFFFFFFF" stroke="#FFFFFFFF">
<path d="M 161.607 172.582 C 160.593 175.224 160.919 188.000 162.000 188.000 C 162.556 188.000 163.000 185.333 163.000 182.000 L 163.000 176.000 167.500 176.000 L 172.000 176.000 172.000 182.000 C 172.000 185.333 172.444 188.000 173.000 188.000 C 174.081 188.000 174.407 175.224 173.393 172.582 C 172.528 170.328 162.472 170.328 161.607 172.582 "/></g>
<g fill="#24506AFF" stroke="#24506AFF">
<path d="M 50.200 82.200 C 49.540 82.860 49.000 82.990 49.000 82.489 C 49.000 81.987 48.107 83.329 47.015 85.470 C 45.923 87.612 45.215 89.549 45.441 89.775 C 45.668 90.001 46.580 88.779 47.469 87.060 C 49.578 82.982 51.380 84.133 50.709 89.130 C 50.320 92.033 50.541 93.000 51.595 93.000 C 52.368 93.000 53.000 92.325 53.000 91.500 C 53.000 90.675 53.450 90.000 54.000 90.000 C 54.550 90.000 55.007 91.013 55.015 92.250 C 55.027 93.920 55.256 94.145 55.904 93.122 C 57.023 91.354 59.000 92.553 59.000 95.000 C 59.000 96.035 59.526 97.207 60.170 97.605 C 60.972 98.101 61.125 97.768 60.655 96.544 C 60.107 95.116 60.373 94.864 61.985 95.286 C 65.028 96.081 64.571 92.581 61.447 91.158 C 60.043 90.518 58.424 88.646 57.849 86.997 C 57.275 85.349 56.173 84.000 55.402 84.000 C 54.631 84.000 54.000 83.325 54.000 82.500 C 54.000 80.700 51.869 80.531 50.200 82.200 "/></g>
<g fill="#FFFFFFFF" stroke="#FFFFFFFF">
<path d="M 159.000 143.000 L 159.000 146.000 167.500 146.000 L 176.000 146.000 176.000 143.000 L 176.000 140.000 167.500 140.000 L 159.000 140.000 159.000 143.000 "/></g>
<g fill="#24506AFF" stroke="#24506AFF">
<path d="M 56.500 250.098 C 53.174 252.783 49.857 254.712 49.056 254.428 C 48.105 254.089 48.273 254.644 49.549 256.054 C 51.174 257.850 51.488 257.925 51.493 256.524 C 51.497 255.605 53.717 253.209 56.426 251.200 C 61.152 247.696 61.323 247.648 60.647 250.024 C 57.925 259.597 56.964 264.132 57.480 264.967 C 57.807 265.497 60.822 263.718 64.179 261.013 C 67.536 258.308 70.671 256.186 71.145 256.297 C 71.620 256.409 71.346 255.600 70.536 254.500 C 69.281 252.795 69.059 252.747 69.032 254.177 C 69.004 255.624 62.069 262.402 61.351 261.684 C 61.208 261.541 61.921 258.193 62.937 254.245 C 65.431 244.550 64.286 243.813 56.500 250.098 "/></g>
<g fill="#24506AFF" stroke="#24506AFF">
<path d="M 279.602 233.520 C 276.487 238.843 276.013 240.311 277.016 241.520 C 278.852 243.731 280.234 243.306 278.958 240.922 C 278.346 239.779 278.108 238.162 278.427 237.329 C 278.909 236.074 279.996 236.362 284.754 239.004 C 287.914 240.758 291.030 242.866 291.677 243.688 C 292.676 244.956 293.105 244.698 294.510 241.981 C 295.420 240.221 295.691 239.073 295.111 239.432 C 294.531 239.790 291.135 238.403 287.565 236.350 C 282.514 233.445 281.314 232.326 282.159 231.308 C 282.756 230.589 284.401 230.000 285.814 230.000 C 288.287 230.000 288.310 229.945 286.441 228.532 C 285.374 227.724 284.256 227.049 283.958 227.032 C 283.660 227.014 281.699 229.934 279.602 233.520 "/></g>
<g fill="#24506AFF" stroke="#24506AFF">
<path d="M 72.667 261.076 C 71.052 262.962 71.082 263.018 73.399 262.436 C 75.837 261.824 80.000 263.374 80.000 264.893 C 80.000 265.346 76.175 266.744 71.500 268.000 C 66.825 269.256 63.000 270.601 63.000 270.987 C 63.000 272.332 66.787 275.140 67.146 274.062 C 67.341 273.479 70.650 272.103 74.500 271.006 C 84.698 268.098 84.441 268.236 82.959 266.450 C 82.262 265.611 80.040 263.616 78.022 262.017 C 74.399 259.148 74.328 259.135 72.667 261.076 "/></g>
<g fill="#24506AFF" stroke="#24506AFF">
<path d="M 291.675 75.151 C 290.671 75.719 289.605 75.939 289.306 75.639 C 289.007 75.340 288.108 75.749 287.310 76.548 C 286.040 77.817 286.055 78.000 287.429 78.000 C 289.389 78.000 289.496 79.872 287.578 80.608 C 286.224 81.128 283.410 81.759 281.711 81.923 C 281.277 81.966 281.840 82.985 282.961 84.189 C 284.082 85.392 285.000 86.774 285.000 87.260 C 285.000 88.517 282.353 91.000 281.012 91.000 C 280.391 91.000 280.160 91.450 280.500 92.000 C 281.564 93.721 283.742 93.093 284.316 90.899 C 284.618 89.744 285.315 89.076 285.864 89.416 C 287.672 90.533 288.113 88.102 286.538 85.698 C 284.870 83.153 285.339 82.000 288.044 82.000 C 290.903 82.000 292.308 84.499 290.359 86.117 C 289.442 86.878 289.212 87.455 289.846 87.400 C 290.481 87.345 292.125 87.233 293.500 87.150 C 296.485 86.971 296.851 84.456 294.000 83.710 C 292.649 83.357 292.000 82.346 292.000 80.594 C 292.000 79.167 292.481 78.000 293.070 78.000 C 293.658 78.000 293.995 77.127 293.820 76.059 C 293.561 74.492 293.149 74.317 291.675 75.151 "/></g>
<g fill="#24506AFF" stroke="#24506AFF">
<path d="M 139.750 227.080 C 137.238 228.543 137.441 231.312 140.000 230.500 C 141.873 229.906 142.000 230.320 142.000 237.006 C 142.000 243.267 142.215 244.105 143.750 243.812 C 145.230 243.529 145.545 242.130 145.789 234.739 C 146.071 226.207 146.024 226.001 143.789 226.030 C 142.530 226.047 140.713 226.519 139.750 227.080 "/></g>
<g fill="#24506AFF" stroke="#24506AFF">
<path d="M 289.103 213.672 C 288.077 215.926 288.104 216.158 289.282 215.181 C 290.377 214.272 291.174 214.556 293.008 216.509 C 295.693 219.367 295.623 219.526 291.250 220.463 C 288.519 221.048 287.995 220.867 287.970 219.329 C 287.944 217.812 287.794 217.756 287.091 219.000 C 286.624 219.825 285.953 221.446 285.601 222.602 C 284.981 224.632 285.144 224.672 290.373 223.771 C 294.786 223.010 296.385 223.148 299.026 224.513 C 301.693 225.893 302.416 225.951 303.117 224.844 C 304.477 222.699 304.178 222.198 301.141 221.531 C 298.354 220.919 294.835 217.797 291.812 213.254 L 290.317 211.008 289.103 213.672 "/></g>
<g fill="#24506AFF" stroke="#24506AFF">
<path d="M 128.441 28.095 C 128.069 28.698 128.233 30.160 128.806 31.345 C 129.379 32.530 130.623 36.102 131.570 39.282 C 133.518 45.815 134.730 47.090 136.584 44.554 C 137.653 43.093 137.529 42.158 135.839 38.916 C 134.725 36.779 133.571 33.223 133.275 31.015 C 132.872 28.006 132.283 27.000 130.927 27.000 C 129.932 27.000 128.813 27.493 128.441 28.095 "/></g>
<g fill="#24506AFF" stroke="#24506AFF">
<path d="M 179.800 298.200 C 180.460 298.860 181.059 301.223 181.132 303.450 C 181.262 307.468 181.268 307.474 181.882 304.204 L 182.500 300.908 187.966 306.454 C 190.972 309.504 193.785 312.000 194.216 312.000 C 194.647 312.000 194.993 310.313 194.985 308.250 C 194.976 306.045 194.646 305.009 194.184 305.737 C 193.632 306.606 191.939 305.492 188.487 301.987 C 185.207 298.657 182.749 297.000 181.088 297.000 C 179.153 297.000 178.867 297.267 179.800 298.200 "/></g>
<g fill="#24506AFF" stroke="#24506AFF">
<path d="M 49.228 234.685 C 50.847 235.109 50.851 235.298 49.293 237.676 C 47.745 240.038 47.541 240.092 46.347 238.460 C 45.641 237.495 45.301 236.322 45.591 235.853 C 45.881 235.384 44.854 235.029 43.309 235.063 C 40.656 235.123 40.623 235.176 42.720 236.020 C 45.414 237.104 46.717 241.432 44.979 243.525 C 43.999 244.707 43.429 244.771 42.292 243.827 C 41.498 243.168 41.814 244.266 42.996 246.269 L 45.144 249.909 50.591 241.954 L 56.039 234.000 51.770 234.116 C 49.421 234.180 48.278 234.436 49.228 234.685 "/></g>
<g fill="#24506AFF" stroke="#24506AFF">
<path d="M 95.220 276.482 C 95.617 276.918 95.010 278.581 93.873 280.179 C 92.100 282.669 91.569 282.899 90.152 281.791 C 88.667 280.630 88.642 280.681 89.911 282.296 C 91.146 283.869 91.071 284.429 89.303 286.796 C 88.193 288.283 86.678 289.500 85.936 289.500 C 85.195 289.500 85.790 290.288 87.259 291.250 C 90.296 293.240 91.000 293.393 91.000 292.062 C 91.000 290.452 98.430 280.132 99.823 279.808 C 100.550 279.639 99.650 278.643 97.823 277.594 C 95.995 276.546 94.824 276.046 95.220 276.482 "/></g>
<g fill="#24506AFF" stroke="#24506AFF">
<path d="M 201.000 293.500 C 199.075 294.241 198.270 294.882 199.211 294.924 C 201.072 295.007 203.143 300.827 203.521 307.033 C 203.733 310.516 203.783 310.554 207.053 309.706 C 209.101 309.176 209.915 308.565 209.179 308.111 C 207.687 307.189 204.737 296.114 205.355 293.752 C 205.887 291.717 205.664 291.704 201.000 293.500 "/></g>
<g fill="#FFFFFFFF" stroke="#FFFFFFFF">
<path d="M 173.015 228.971 C 171.771 231.296 171.706 238.987 172.914 240.896 C 174.340 243.148 176.837 241.386 177.541 237.631 C 178.824 230.795 175.472 224.382 173.015 228.971 "/></g>
<g fill="#24506AFF" stroke="#24506AFF">
<path d="M 228.675 282.601 C 225.493 284.370 225.174 284.812 226.776 285.231 C 229.056 285.827 235.434 296.489 234.456 298.071 C 234.084 298.673 235.221 298.420 236.981 297.510 C 239.663 296.123 239.948 295.663 238.734 294.677 C 236.415 292.794 231.029 282.521 231.799 281.450 C 232.184 280.914 230.779 281.432 228.675 282.601 "/></g>
<g fill="#24506AFF" stroke="#24506AFF">
<path d="M 150.000 200.000 C 150.000 200.629 156.500 201.000 167.500 201.000 C 178.500 201.000 185.000 200.629 185.000 200.000 C 185.000 199.371 178.500 199.000 167.500 199.000 C 156.500 199.000 150.000 199.371 150.000 200.000 "/></g>
<g fill="#24506AFF" stroke="#24506AFF">
<path d="M 259.000 261.618 C 259.000 262.718 259.641 264.491 260.425 265.559 C 261.820 267.459 261.958 267.462 267.015 265.677 C 271.913 263.948 272.280 263.943 274.090 265.582 C 275.909 267.228 276.000 267.215 276.000 265.310 C 276.000 264.210 275.119 262.513 274.043 261.539 C 272.170 259.844 271.867 259.847 266.949 261.615 C 261.916 263.425 261.783 263.424 260.406 261.540 C 259.026 259.653 259.000 259.654 259.000 261.618 "/></g>
<g fill="#24506AFF" stroke="#24506AFF">
<path d="M 271.220 245.954 C 269.966 247.629 269.423 249.000 270.013 249.000 C 272.004 249.000 282.000 257.226 282.007 258.870 C 282.011 259.933 282.684 259.482 283.943 257.573 L 285.872 254.646 283.346 253.335 C 278.718 250.935 272.955 245.818 273.229 244.354 C 273.378 243.558 272.474 244.279 271.220 245.954 "/></g>
<g fill="#24506AFF" stroke="#24506AFF">
<path d="M 27.571 165.571 C 24.534 168.608 26.292 173.000 30.545 173.000 C 31.725 173.000 33.494 172.112 34.477 171.026 C 36.150 169.177 36.158 168.891 34.609 166.526 C 32.726 163.652 29.877 163.266 27.571 165.571 "/></g>
<g fill="#24506AFF" stroke="#24506AFF">
<path d="M 44.040 212.100 C 43.995 213.913 31.742 219.576 30.083 218.551 C 29.522 218.205 29.662 219.346 30.395 221.087 C 31.127 222.828 31.992 223.822 32.317 223.296 C 32.642 222.770 35.967 221.062 39.704 219.501 C 43.442 217.940 46.648 216.554 46.828 216.420 C 47.009 216.286 46.464 214.900 45.618 213.338 C 44.689 211.624 44.064 211.134 44.040 212.100 "/></g>
<g fill="#FFFFFFFF" stroke="#FFFFFFFF">
<path d="M 164.195 182.750 C 164.487 187.293 164.630 187.500 167.500 187.500 C 170.370 187.500 170.513 187.293 170.805 182.750 L 171.110 178.000 167.500 178.000 L 163.890 178.000 164.195 182.750 "/></g>
<g fill="#24506AFF" stroke="#24506AFF">
<path d="M 86.627 272.261 C 86.306 273.492 84.264 276.831 82.090 279.680 L 78.137 284.860 80.402 286.344 C 81.967 287.369 82.667 287.464 82.667 286.649 C 82.667 284.931 90.107 274.000 91.276 274.000 C 91.823 274.000 91.132 273.105 89.741 272.011 L 87.211 270.021 86.627 272.261 "/></g>
<g fill="#24506AFF" stroke="#24506AFF">
<path d="M 299.932 166.126 C 298.326 169.128 300.211 173.000 303.279 173.000 C 306.164 173.000 308.000 171.250 308.000 168.500 C 308.000 163.968 302.028 162.211 299.932 166.126 "/></g>
<g fill="#24506AFF" stroke="#24506AFF">
<path d="M 211.441 290.468 C 210.374 291.276 209.950 291.952 210.500 291.972 C 211.050 291.991 213.681 294.706 216.346 298.004 C 219.012 301.302 221.599 304.000 222.096 304.000 C 224.249 304.000 222.692 299.916 219.000 295.877 C 216.800 293.470 215.000 290.938 215.000 290.250 C 215.000 288.598 213.818 288.671 211.441 290.468 "/></g>
<g fill="#24506AFF" stroke="#24506AFF">
<path d="M 123.000 291.756 C 123.000 292.618 122.233 295.756 121.297 298.728 C 120.079 302.590 119.886 304.595 120.618 305.756 C 122.091 308.092 123.931 308.459 123.379 306.307 C 123.125 305.313 123.835 301.842 124.958 298.593 C 127.462 291.349 127.462 291.354 125.000 290.710 C 123.628 290.351 123.000 290.680 123.000 291.756 "/></g>
<g fill="#24506AFF" stroke="#24506AFF">
<path d="M 51.917 72.155 C 50.938 73.983 51.008 74.211 52.382 73.684 C 53.394 73.295 55.053 74.097 56.828 75.832 C 58.386 77.354 62.436 80.781 65.830 83.447 C 69.223 86.114 72.000 88.656 72.000 89.098 C 72.000 89.539 71.213 90.343 70.250 90.883 C 68.631 91.792 68.626 91.914 70.177 92.512 C 72.587 93.440 76.500 92.705 76.500 91.324 C 76.500 90.676 72.670 87.258 67.988 83.727 C 63.306 80.195 58.034 75.664 56.271 73.656 C 53.128 70.076 53.045 70.047 51.917 72.155 "/></g>
<g fill="#24506AFF" stroke="#24506AFF">
<path d="M 102.712 286.012 C 99.208 288.768 98.424 293.016 100.653 297.177 L 102.433 300.500 102.205 297.500 C 101.921 293.757 105.715 286.956 109.021 285.284 L 111.500 284.029 108.385 284.015 C 106.672 284.007 104.119 284.905 102.712 286.012 "/></g>
<g fill="#24506AFF" stroke="#24506AFF">
<path d="M 160.839 305.248 C 161.220 313.382 162.075 315.028 165.872 314.937 L 168.500 314.873 166.171 313.940 C 163.977 313.060 163.861 312.571 164.171 305.501 C 164.476 298.552 164.352 297.995 162.500 297.995 C 160.653 297.995 160.526 298.549 160.839 305.248 "/></g>
<g fill="#24506AFF" stroke="#24506AFF">
<path d="M 154.500 197.000 C 154.858 197.580 160.324 198.000 167.500 198.000 C 174.676 198.000 180.142 197.580 180.500 197.000 C 180.900 196.352 176.324 196.000 167.500 196.000 C 158.676 196.000 154.100 196.352 154.500 197.000 "/></g>
<g fill="#24506AFF" stroke="#24506AFF">
<path d="M 112.902 286.607 C 114.263 289.432 112.677 294.978 109.538 298.364 L 107.095 301.000 109.373 301.000 C 115.174 301.000 118.174 291.718 113.944 286.861 C 112.118 284.765 112.001 284.737 112.902 286.607 "/></g>
<g fill="#FFFFFFFF" stroke="#FFFFFFFF">
<path d="M 156.529 228.614 C 154.633 230.510 154.577 232.404 156.373 233.895 C 158.523 235.679 161.000 234.130 161.000 231.000 C 161.000 227.700 158.681 226.462 156.529 228.614 "/></g>
<g fill="#24506AFF" stroke="#24506AFF">
<path d="M 159.000 193.000 C 159.000 193.588 162.500 194.000 167.500 194.000 C 172.500 194.000 176.000 193.588 176.000 193.000 C 176.000 192.412 172.500 192.000 167.500 192.000 C 162.500 192.000 159.000 192.412 159.000 193.000 "/></g>
<g fill="#FFFFFFFF" stroke="#FFFFFFFF">
<path d="M 189.200 228.200 C 187.094 230.306 188.451 235.000 191.165 235.000 C 192.866 235.000 194.082 231.022 193.000 229.000 C 191.768 226.698 190.887 226.513 189.200 228.200 "/></g>
<g fill="#24506AFF" stroke="#24506AFF">
<path d="M 43.096 70.683 C 43.149 71.682 43.770 74.750 44.477 77.500 L 45.762 82.500 45.881 78.684 C 45.947 76.586 46.486 73.960 47.081 72.849 C 48.316 70.541 48.288 70.491 45.250 69.557 C 43.473 69.011 43.020 69.247 43.096 70.683 "/></g>
<g fill="#24506AFF" stroke="#24506AFF">
<path d="M 38.166 80.876 C 37.102 81.551 37.169 81.851 38.496 82.360 C 39.762 82.846 40.002 83.714 39.500 85.999 C 38.991 88.316 39.191 89.000 40.375 89.000 C 42.506 89.000 43.788 82.113 41.882 80.906 C 40.171 79.822 39.833 79.820 38.166 80.876 "/></g>
<g fill="#24506AFF" stroke="#24506AFF">
<path d="M 166.924 97.000 C 166.648 101.675 166.098 106.175 165.700 107.000 C 165.157 108.128 165.604 108.500 167.500 108.500 C 169.390 108.500 169.845 108.124 169.314 107.000 C 168.924 106.175 168.340 101.675 168.015 97.000 L 167.426 88.500 166.924 97.000 "/></g>
<g fill="#24506AFF" stroke="#24506AFF">
<path d="M 270.172 83.653 C 270.584 85.792 274.382 87.830 278.692 88.223 C 281.307 88.462 280.906 88.041 275.771 85.161 C 270.735 82.335 269.873 82.103 270.172 83.653 "/></g>
<g fill="#FFFFFFFF" stroke="#FFFFFFFF">
<path d="M 223.000 144.500 C 223.000 145.500 224.000 146.000 226.000 146.000 C 227.650 146.000 229.338 146.024 229.750 146.053 C 230.163 146.082 230.645 145.407 230.823 144.553 C 231.074 143.350 230.228 143.000 227.073 143.000 C 224.119 143.000 223.000 143.412 223.000 144.500 "/></g>
<g fill="#24506AFF" stroke="#24506AFF">
<path d="M 221.628 53.109 C 220.625 58.123 220.820 58.860 223.000 58.290 C 225.318 57.683 225.617 54.397 223.596 51.734 C 222.371 50.120 222.202 50.238 221.628 53.109 "/></g>
<g fill="#FFFFFFFF" stroke="#FFFFFFFF">
<path d="M 104.000 144.500 C 104.000 145.583 105.111 146.000 108.000 146.000 C 110.889 146.000 112.000 145.583 112.000 144.500 C 112.000 143.417 110.889 143.000 108.000 143.000 C 105.111 143.000 104.000 143.417 104.000 144.500 "/></g>
<g fill="#24506AFF" stroke="#24506AFF">
<path d="M 108.742 44.433 C 109.211 46.885 111.523 48.581 112.420 47.130 C 113.388 45.564 111.722 42.000 110.022 42.000 C 108.713 42.000 108.393 42.608 108.742 44.433 "/></g>
<g fill="#24506AFF" stroke="#24506AFF">
<path d="M 244.032 288.921 C 244.014 290.253 243.213 292.227 242.250 293.308 C 240.521 295.250 240.540 295.253 243.750 293.611 C 247.415 291.736 247.606 291.183 245.532 288.441 C 244.110 286.561 244.063 286.577 244.032 288.921 "/></g>
<g fill="#24506AFF" stroke="#24506AFF">
<path d="M 178.000 160.500 C 178.000 162.056 178.567 163.000 179.500 163.000 C 180.325 163.000 181.068 163.450 181.150 164.000 C 181.250 164.667 181.300 164.667 181.300 164.000 C 181.300 159.597 180.821 158.000 179.500 158.000 C 178.567 158.000 178.000 158.944 178.000 160.500 "/></g>
<g fill="#24506AFF" stroke="#24506AFF">
<path d="M 153.850 160.500 C 153.768 161.875 153.700 163.450 153.700 164.000 C 153.700 164.667 153.750 164.667 153.850 164.000 C 153.933 163.450 154.675 163.000 155.500 163.000 C 156.433 163.000 157.000 162.056 157.000 160.500 C 157.000 158.944 156.433 158.000 155.500 158.000 C 154.607 158.000 153.939 159.011 153.850 160.500 "/></g>
<g fill="#24506AFF" stroke="#24506AFF">
<path d="M 190.639 157.694 C 189.352 158.982 190.003 163.000 191.500 163.000 C 192.424 163.000 193.000 162.062 193.000 160.559 C 193.000 158.050 191.773 156.560 190.639 157.694 "/></g>
<g fill="#24506AFF" stroke="#24506AFF">
<path d="M 160.639 157.694 C 159.352 158.982 160.003 163.000 161.500 163.000 C 162.424 163.000 163.000 162.062 163.000 160.559 C 163.000 158.050 161.773 156.560 160.639 157.694 "/></g>
<g fill="#24506AFF" stroke="#24506AFF">
<path d="M 184.000 160.500 C 184.000 162.056 184.567 163.000 185.500 163.000 C 186.433 163.000 187.000 162.056 187.000 160.500 C 187.000 158.944 186.433 158.000 185.500 158.000 C 184.567 158.000 184.000 158.944 184.000 160.500 "/></g>
<g fill="#24506AFF" stroke="#24506AFF">
<path d="M 172.000 160.500 C 172.000 162.056 172.567 163.000 173.500 163.000 C 174.433 163.000 175.000 162.056 175.000 160.500 C 175.000 158.944 174.433 158.000 173.500 158.000 C 172.567 158.000 172.000 158.944 172.000 160.500 "/></g>
<g fill="#24506AFF" stroke="#24506AFF">
<path d="M 166.000 160.500 C 166.000 162.056 166.567 163.000 167.500 163.000 C 168.433 163.000 169.000 162.056 169.000 160.500 C 169.000 158.944 168.433 158.000 167.500 158.000 C 166.567 158.000 166.000 158.944 166.000 160.500 "/></g>
<g fill="#24506AFF" stroke="#24506AFF">
<path d="M 148.000 160.500 C 148.000 162.056 148.567 163.000 149.500 163.000 C 150.433 163.000 151.000 162.056 151.000 160.500 C 151.000 158.944 150.433 158.000 149.500 158.000 C 148.567 158.000 148.000 158.944 148.000 160.500 "/></g>
<g fill="#24506AFF" stroke="#24506AFF">
<path d="M 142.000 160.500 C 142.000 162.056 142.567 163.000 143.500 163.000 C 144.433 163.000 145.000 162.056 145.000 160.500 C 145.000 158.944 144.433 158.000 143.500 158.000 C 142.567 158.000 142.000 158.944 142.000 160.500 "/></g>
<g fill="#24506AFF" stroke="#24506AFF">
<path d="M 235.559 278.532 C 233.685 279.949 233.704 280.000 236.109 280.000 C 237.479 280.000 239.140 280.540 239.800 281.200 C 241.418 282.818 241.271 280.941 239.608 278.750 C 238.026 276.665 238.026 276.666 235.559 278.532 "/></g>
<g fill="#24506AFF" stroke="#24506AFF">
<path d="M 70.173 278.130 C 72.316 279.747 72.614 279.754 74.294 278.234 C 76.004 276.686 75.875 276.589 71.984 276.491 L 67.863 276.388 70.173 278.130 "/></g>
<g fill="#24506AFF" stroke="#24506AFF">
<path d="M 32.761 227.195 C 33.399 229.632 34.588 230.265 37.058 229.482 C 38.890 228.900 38.751 228.657 35.689 227.097 C 32.413 225.426 32.300 225.430 32.761 227.195 "/></g>
<g fill="#24506AFF" stroke="#24506AFF">
<path d="M 50.868 100.118 C 51.766 101.696 53.288 102.990 54.250 102.994 C 56.881 103.003 56.298 101.744 52.576 99.374 L 49.236 97.249 50.868 100.118 "/></g>
<g fill="#24506AFF" stroke="#24506AFF">
<path d="M 192.000 296.000 C 191.000 296.646 190.917 296.974 191.750 296.985 C 192.501 296.994 193.053 298.497 193.134 300.750 C 193.260 304.310 193.301 304.260 193.930 299.750 C 194.624 294.772 194.443 294.421 192.000 296.000 "/></g>
<g fill="#24506AFF" stroke="#24506AFF">
<path d="M 222.309 285.819 C 221.616 286.254 221.487 287.946 221.951 290.500 L 222.678 294.500 223.036 289.819 C 223.280 286.629 223.048 285.355 222.309 285.819 "/></g>
<g fill="#24506AFF" stroke="#24506AFF">
<path d="M 266.433 271.862 C 268.169 273.838 268.523 273.906 269.897 272.531 C 271.272 271.156 271.262 271.000 269.796 271.000 C 268.898 271.000 267.339 270.699 266.332 270.330 C 264.618 269.704 264.624 269.802 266.433 271.862 "/></g>
<g fill="#24506AFF" stroke="#24506AFF">
<path d="M 208.755 160.500 C 209.018 161.875 209.631 163.000 210.117 163.000 C 210.602 163.000 211.000 161.875 211.000 160.500 C 211.000 159.058 210.424 158.000 209.639 158.000 C 208.726 158.000 208.435 158.824 208.755 160.500 "/></g>
<g fill="#24506AFF" stroke="#24506AFF">
<path d="M 196.755 160.500 C 197.018 161.875 197.631 163.000 198.117 163.000 C 198.602 163.000 199.000 161.875 199.000 160.500 C 199.000 159.058 198.424 158.000 197.639 158.000 C 196.726 158.000 196.435 158.824 196.755 160.500 "/></g>
<g fill="#24506AFF" stroke="#24506AFF">
<path d="M 136.000 160.500 C 136.000 161.875 136.398 163.000 136.883 163.000 C 137.369 163.000 137.982 161.875 138.245 160.500 C 138.565 158.824 138.274 158.000 137.361 158.000 C 136.576 158.000 136.000 159.058 136.000 160.500 "/></g>
<g fill="#24506AFF" stroke="#24506AFF">
<path d="M 124.000 160.500 C 124.000 161.875 124.398 163.000 124.883 163.000 C 125.369 163.000 125.982 161.875 126.245 160.500 C 126.565 158.824 126.274 158.000 125.361 158.000 C 124.576 158.000 124.000 159.058 124.000 160.500 "/></g>
<g fill="#24506AFF" stroke="#24506AFF">
<path d="M 64.338 89.618 C 67.257 91.200 68.705 90.950 67.541 89.067 C 67.179 88.480 65.671 88.018 64.191 88.040 L 61.500 88.080 64.338 89.618 "/></g>
<g fill="#24506AFF" stroke="#24506AFF">
<path d="M 264.211 255.593 C 263.139 256.762 263.266 257.025 264.961 257.150 C 266.082 257.233 267.497 257.345 268.105 257.400 C 268.713 257.455 268.375 256.755 267.355 255.843 C 265.766 254.425 265.315 254.389 264.211 255.593 "/></g>
<g fill="#24506AFF" stroke="#24506AFF">
<path d="M 215.000 160.500 C 215.000 161.875 215.450 163.000 216.000 163.000 C 216.550 163.000 217.000 161.875 217.000 160.500 C 217.000 159.125 216.550 158.000 216.000 158.000 C 215.450 158.000 215.000 159.125 215.000 160.500 "/></g>
<g fill="#24506AFF" stroke="#24506AFF">
<path d="M 203.000 160.500 C 203.000 161.875 203.450 163.000 204.000 163.000 C 204.550 163.000 205.000 161.875 205.000 160.500 C 205.000 159.125 204.550 158.000 204.000 158.000 C 203.450 158.000 203.000 159.125 203.000 160.500 "/></g>
<g fill="#24506AFF" stroke="#24506AFF">
<path d="M 130.000 160.500 C 130.000 161.875 130.450 163.000 131.000 163.000 C 131.550 163.000 132.000 161.875 132.000 160.500 C 132.000 159.125 131.550 158.000 131.000 158.000 C 130.450 158.000 130.000 159.125 130.000 160.500 "/></g>
<g fill="#24506AFF" stroke="#24506AFF">
<path d="M 118.000 160.500 C 118.000 161.875 118.450 163.000 119.000 163.000 C 119.550 163.000 120.000 161.875 120.000 160.500 C 120.000 159.125 119.550 158.000 119.000 158.000 C 118.450 158.000 118.000 159.125 118.000 160.500 "/></g>
<g fill="#24506AFF" stroke="#24506AFF">
<path d="M 182.116 311.250 C 182.052 312.763 181.550 314.068 181.000 314.150 C 179.619 314.357 181.506 314.347 183.750 314.135 C 184.883 314.028 185.100 313.710 184.366 313.235 C 183.742 312.831 183.007 311.600 182.732 310.500 C 182.349 308.967 182.205 309.142 182.116 311.250 "/></g>
<g fill="#24506AFF" stroke="#24506AFF">
<path d="M 236.733 285.911 C 236.267 287.694 236.536 288.059 238.131 287.809 C 239.887 287.534 239.951 287.290 238.708 285.602 C 237.354 283.763 237.293 283.773 236.733 285.911 "/></g>
<g fill="#24506AFF" stroke="#24506AFF">
<path d="M 279.250 78.413 C 276.826 80.800 276.408 82.000 278.000 82.000 C 278.550 82.000 279.006 81.438 279.014 80.750 C 279.022 80.063 279.584 78.757 280.264 77.848 C 280.944 76.940 280.488 77.194 279.250 78.413 "/></g>
<g fill="#24506AFF" stroke="#24506AFF">
<path d="M 37.015 235.750 C 37.024 236.163 37.411 237.100 37.876 237.834 C 38.565 238.921 38.827 238.893 39.292 237.682 C 39.606 236.864 39.593 235.927 39.264 235.598 C 38.424 234.757 36.997 234.853 37.015 235.750 "/></g>
<g fill="#24506AFF" stroke="#24506AFF">
<path d="M 134.008 294.510 C 134.634 295.264 135.884 295.598 136.785 295.252 C 138.045 294.769 137.781 294.452 135.647 293.881 C 133.361 293.269 133.071 293.381 134.008 294.510 "/></g>
<g fill="#24506AFF" stroke="#24506AFF">
<path d="M 275.850 76.000 C 275.405 78.967 275.640 79.279 276.792 77.250 C 277.585 75.855 277.677 75.000 277.035 75.000 C 276.466 75.000 275.933 75.450 275.850 76.000 "/></g>
<g fill="#24506AFF" stroke="#24506AFF">
<path d="M 172.183 299.043 C 173.295 299.692 174.079 299.681 174.492 299.012 C 174.847 298.438 174.118 298.013 172.809 298.030 C 170.818 298.057 170.732 298.196 172.183 299.043 "/></g>
<g fill="#24506AFF" stroke="#24506AFF">
<path d="M 132.000 305.000 C 131.835 305.550 131.700 306.450 131.700 307.000 C 131.700 307.667 131.800 307.667 132.000 307.000 C 132.165 306.450 132.300 305.550 132.300 305.000 C 132.300 304.333 132.200 304.333 132.000 305.000 "/></g>
<g fill="#24506AFF" stroke="#24506AFF">
<path d="M 171.695 312.352 C 171.275 313.448 171.413 313.863 172.064 313.460 C 172.637 313.106 172.939 312.318 172.736 311.709 C 172.533 311.100 172.065 311.389 171.695 312.352 "/></g>
<g fill="#24506AFF" stroke="#24506AFF">
<path d="M 48.000 80.200 C 48.000 81.133 48.267 81.133 49.200 80.200 C 50.133 79.267 50.133 79.000 49.200 79.000 C 48.540 79.000 48.000 79.540 48.000 80.200 "/></g>
</svg>
