<svg width="125" height="108" viewBox="0 0 125 108" fill="none" xmlns="http://www.w3.org/2000/svg">
<path d="M61.4287 60.3241C81.8214 60.3241 98.3529 46.82 98.3529 30.162C98.3529 13.504 81.8214 0 61.4287 0C41.036 0 24.5045 13.504 24.5045 30.162C24.5045 46.82 41.036 60.3241 61.4287 60.3241Z" fill="#FFD299"/>
<path d="M125 42.6152C125 54.6666 103.408 62.5 62.433 62.5C21.4582 62.5 0.167358 54.6666 0.167358 42.6152C0.167358 30.5637 21.4582 16.2694 62.433 16.2694C103.408 16.2694 125 30.5637 125 42.6152Z" fill="#FFBE6C"/>
<path d="M110.806 66.6843C110.706 91.2893 94.7041 90.988 60.7592 90.988C26.8144 90.988 13.9261 90.9211 14.0265 66.3161C14.1269 41.7111 35.853 21.8932 62.6004 21.9937C89.3144 22.0941 110.907 42.1128 110.806 66.7178V66.6843Z" fill="white"/>
<path d="M41.8787 28.4547C41.8787 32.8735 37.8616 33.1748 33.8444 36.422C30.3964 39.2005 25.8436 32.8066 25.8771 28.3877C25.9106 23.9689 28.1535 21.659 32.6058 21.6925C37.0581 21.726 41.9457 24.0358 41.9122 28.4547H41.8787Z" fill="black"/>
<path d="M84.8955 31.3C81.7822 27.4502 88.9461 22.3618 93.9006 22.3618C98.8551 22.3618 102.839 26.4124 102.839 31.3669C102.839 36.3214 99.9598 40.5728 95.3066 38.8656C90.6534 37.1583 88.5109 35.7858 84.8955 31.3Z" fill="black"/>
<path d="M45.5945 69.3958C45.5945 76.3589 39.9036 82.0164 32.9071 81.9829C25.9105 81.9494 18.4453 77.9992 18.4788 71.0362C18.5123 64.0731 26.0444 56.7084 33.0075 56.7084C39.9705 56.7084 45.628 62.3993 45.5945 69.3958Z" fill="#FFC8CB"/>
<path d="M104.713 70.7683C104.713 77.3296 96.9135 79.4386 90.3856 79.4052C83.8578 79.3717 78.5351 74.049 78.5685 67.4877C78.602 60.9263 83.9247 55.6371 90.4861 55.6706C97.0474 55.704 104.747 64.2405 104.747 70.7683H104.713Z" fill="#FFC8CB"/>
<path d="M49.8795 58.8176C49.8795 62.1652 47.4692 64.8768 44.4898 64.8433C41.5439 64.8433 39.1336 62.0983 39.1671 58.7507C39.1671 55.4031 42.8495 53.1602 45.8289 53.1602C48.8082 53.1602 49.913 55.4365 49.8795 58.7842V58.8176Z" fill="black"/>
<path d="M83.7239 59.9891C83.7239 63.3367 81.6818 64.8431 78.7024 64.8431C75.723 64.8431 73.3797 62.1315 73.3797 58.7839C73.3797 55.4363 75.6226 52.8921 78.5016 53.5951C82.117 54.499 83.7239 56.6414 83.7239 59.9891Z" fill="black"/>
<path d="M53.9636 66.9522C54.7001 68.2578 56.2065 69.0612 57.7129 68.9608C59.2193 68.8604 60.5919 67.8561 61.1275 66.4501C61.6631 67.5883 62.8013 68.8604 64.3077 68.9608C65.948 69.0612 67.4545 68.4252 68.124 67.0526" stroke="#231815" stroke-width="2.17595" stroke-linecap="round" stroke-linejoin="round"/>
<path d="M29.1577 15.4994C27.986 17.2067 27.0152 19.0479 26.2787 20.9226C35.7859 18.0436 47.8708 16.2359 62.433 16.2359C75.8234 16.2359 87.1049 17.7758 96.2774 20.253C95.4739 18.3784 94.5031 16.6376 93.298 14.9638C84.6611 12.9218 74.317 11.6497 62.2656 11.6497C49.2099 11.6497 38.1628 13.1226 29.1577 15.4659V15.4994Z" fill="#C06A00"/>
<path d="M61.5962 99.3574C73.0774 99.3574 82.3849 96.3598 82.3849 92.6622C82.3849 88.9645 73.0774 85.9669 61.5962 85.9669C50.1149 85.9669 40.8075 88.9645 40.8075 92.6622C40.8075 96.3598 50.1149 99.3574 61.5962 99.3574Z" fill="white"/>
<path d="M71.1034 92.1599C63.4708 94.8715 60.9936 96.4448 60.1902 97.2483C59.1859 96.4114 56.7756 94.9384 50.7834 92.5951C40.3388 88.5445 24.9063 87.808 24.9063 87.808C24.9063 87.808 35.15 101.734 44.8581 102.203C49.6452 102.437 53.5954 101.433 56.4074 100.395C55.1353 101.366 53.9636 102.437 53.5619 103.174C52.4237 105.249 52.3233 107.592 52.3233 107.592C52.3233 107.592 55.7713 108.731 58.1816 106.019C60.2571 103.676 59.8219 100.228 60.3241 98.5539C60.8262 100.261 60.2906 103.743 62.3661 106.119C64.7764 108.831 68.3249 107.659 68.3249 107.659C68.3249 107.659 68.2579 105.283 67.1532 103.207C66.6176 102.236 64.8099 100.73 63.1361 99.5581C66.2828 100.897 71.4716 102.571 78.033 102.37C88.9797 102.035 100.261 87.5067 100.261 87.5067C100.261 87.5067 82.8535 88.0423 71.1369 92.1934L71.1034 92.1599Z" fill="#C04300"/>
</svg>